<?xml version="1.0" standalone="no"?>
<!DOCTYPE svg PUBLIC "-//W3C//DTD SVG 1.1//EN" "http://www.w3.org/Graphics/SVG/1.1/DTD/svg11.dtd" >
<svg xmlns="http://www.w3.org/2000/svg">
<metadata>Generated by IcoMoon</metadata>
<defs>
<font id="icomoon" horiz-adv-x="1024">
<font-face units-per-em="1024" ascent="960" descent="-64" />
<missing-glyph horiz-adv-x="1024" />
<glyph unicode="&#x20;" horiz-adv-x="512" d="" />
<glyph unicode="&#xe900;" glyph-name="laba" d="M500.873 958.978l-245.196-249.219h-173.783c-45.158 0-81.786-37.219-81.786-83.093v-332.313c0-45.915 36.626-83.093 81.786-83.093h173.783l245.197-249.302c45.158 0 81.744 37.219 81.744 83.093v830.854c-0.001 45.875-36.586 83.072-81.746 83.072v0zM500.873 47.932l-214.574 240.521h-204.404v332.312h204.404l214.575 240.564v-813.397h-0.001zM985.51 424.037c8.087 0 14.62 16.331 14.62 36.443 0 20.11-6.533 36.443-14.62 36.443h-102.242c-8.085 0-14.62-16.333-14.62-36.443s6.535-36.443 14.62-36.443h102.242zM996.616 894.994c6.982 4.102 4.614 21.559-5.309 38.996-9.882 17.414-23.6 28.234-30.541 24.13l-88.606-51.937c-6.982-4.104-4.574-21.559 5.308-38.975 9.883-17.435 23.602-28.254 30.582-24.151l88.566 51.937zM996.616 25.963c6.982-4.123 4.614-21.559-5.309-38.994-9.882-17.416-23.6-28.236-30.541-24.133l-88.606 51.94c-6.982 4.102-4.574 21.559 5.308 38.972 9.883 17.418 23.602 28.257 30.582 24.153l88.566-51.938zM640.152 273.795c-7.268 19.946-5.269 38.872 14.372 46.284 49.57 23.233 73.215 68.475 79.256 125.232 7.066 66.191-24.133 127.030-77.951 152.079-17.638 11.515-24.904 31.443-13.555 49.347 11.312 17.885 30.951 25.295 48.509 13.782 79.786-47.040 127.559-128.846 117.474-223.416-8.083-75.66-53.366-147.218-122.536-177.863-16.171-9.309-37.891-3.206-45.569 14.556v0 0z" />
<glyph unicode="&#xe901;" glyph-name="renzheng2" horiz-adv-x="1280" d="M314.779 751.003h-156.416l156.416-234.624h156.416l-156.416 234.624zM497.381 751.003h156.416l-130.23-234.624-78.208 130.405 52.022 104.219zM730.085 751.003h364.855v-78.208h-364.855v78.208zM730.085 594.761h364.855v-78.208h-364.855v78.208zM730.085 438.345h364.855v-78.208h-364.855v78.208zM730.085 281.929h364.855v-78.208h-364.855v78.208zM0.201 886.124v-844.233c0-40.396 32.747-73.143 73.143-73.143h1104.869c40.396 0 73.143 32.747 73.143 73.143v844.233c0 40.396-32.747 73.143-73.143 73.143h-1104.869c-40.396 0-73.143-32.747-73.143-73.143zM1136.576 46.956h-1021.595c-20.198 0-36.571 16.374-36.571 36.571v760.96c0 20.198 16.374 36.571 36.571 36.571h1021.595c20.198 0 36.571-16.374 36.571-36.571v-760.96c0-20.198-16.374-36.571-36.571-36.571zM313.033 385.45c0-57.609 46.785-104.394 104.394-104.394s104.394 46.785 104.394 104.394c0 37.358-19.901 71.749-52.197 90.428-32.291 18.679-72.103 18.679-104.394 0-32.296-18.679-52.197-53.244-52.197-90.428zM208.814 385.45c0 115.217 93.57 208.438 208.613 208.438s208.438-93.396 208.438-208.438c0-115.043-93.221-208.438-208.438-208.438s-208.613 93.221-208.613 208.438z" />
<glyph unicode="&#xe906;" glyph-name="tixing" horiz-adv-x="779" d="M381.831-10.24c-40.942 0-76.766 28.16-87.001 66.56h-53.736c10.235-69.12 69.089-120.32 140.738-120.32s130.502 53.76 140.738 120.32h-53.736c-10.235-38.4-46.060-66.56-87.001-66.56v0zM763.101 268.8c0 10.24-5.118 20.48-15.353 23.040-2.559 0-138.179 74.24-138.179 273.92 2.559 58.88-23.030 184.32-140.738 222.72-2.559 0-2.559 0-5.118 2.56 12.794 17.92 23.030 40.96 23.030 64 0 56.32-46.060 104.96-104.913 104.96s-104.913-46.080-104.913-104.96c0-23.040 7.677-46.080 23.030-64-2.559 0-5.118 0-5.118-2.56-117.708-38.4-143.296-161.28-140.738-220.16 0-199.68-130.502-271.36-138.179-276.48s-15.353-12.8-15.353-23.040v-138.24c0-7.68 2.559-15.36 7.677-20.48s12.794-7.68 17.912-7.68h711.364c7.677 0 15.353 2.56 17.912 7.68 5.118 5.12 7.677 12.8 7.677 20.48v138.24zM381.831 906.24c28.148 0 51.177-23.040 51.177-51.2s-23.030-51.2-51.177-51.2c-28.148 0-51.177 23.040-51.177 51.2s23.030 51.2 51.177 51.2zM54.296 158.72v94.72c40.942 28.16 150.973 120.32 150.973 314.88 0 5.12-2.559 133.12 104.913 168.96 7.677 2.56 33.265 10.24 71.648 10.24s63.972-7.68 71.648-10.24c107.472-35.84 104.913-163.84 104.913-168.96 0-194.56 110.031-286.72 150.973-314.88v-94.72h-655.069z" />
<glyph unicode="&#xe907;" glyph-name="faxian" d="M971.85 450.444c0 255.316-206.981 462.297-462.297 462.297s-462.297-206.981-462.297-462.297c0-255.316 206.981-462.297 462.297-462.297s462.297 206.981 462.297 462.297zM1019.111 450.444c0-281.418-228.14-509.558-509.558-509.558s-509.558 228.14-509.558 509.558c0 281.418 228.14 509.558 509.558 509.558s509.558-228.14 509.558-509.558zM509.556 402.125c-26.677 0-48.312 21.635-48.312 48.312 0 26.703 21.635 48.338 48.312 48.338s48.312-21.635 48.312-48.338c0-26.677-21.635-48.312-48.312-48.312zM774.325 725.709l-328.993-208.003-208.003-328.993c-4.805-7.614 4.043-16.463 11.658-11.658l328.993 208.003 208.003 328.993c4.805 7.614-4.043 16.463-11.658 11.658z" />
<glyph unicode="&#xe908;" glyph-name="me" d="M54.204 4.267c-2.976 61.977 12.065 120.853 55.676 151.721 18.482 13.155 40.659 22.134 73.080 30.718 9.246 2.37 17.908 4.372 34.25 7.993 16.165 3.582 20.259 4.501 27.898 6.306 78.184 18.471 126.465 42.984 166.961 96.508 1.363 1.425 4.126 5.693 6.5 11.334 13.899 33.032 2.621 79.152-44.854 137.244-55.081 67.195-70.803 180.672-51.276 296.901 14.219 85.684 96.208 148.741 188.023 148.741v51.2c-115.892 0-220.036-80.096-238.524-191.509-21.729-129.335-4.040-257.008 62.156-337.762 36.426-44.572 42.987-71.402 37.283-84.958-31.992-42.402-70.362-61.883-138.040-77.872-7.313-1.728-11.304-2.624-27.203-6.147-16.868-3.738-25.939-5.834-36.083-8.435-38.043-10.071-65.424-21.157-89.805-38.512-66.074-46.767-83.436-127.749-76.162-210.964 1.663-19.11 17.651-33.709 36.818-33.709h939.167c19.162 0 35.165 14.593 36.83 33.718 7.245 83.23-10.099 164.187-76.138 210.986-23.864 16.979-50.435 27.748-87.975 37.857-10.89 2.842-20.395 5.053-38.293 9.030-15.501 3.444-19.418 4.326-26.56 6.013-67.928 16.048-106.231 35.486-138.119 77.715-5.837 13.856 0.733 40.692 37.199 85.305 66.148 80.739 83.863 208.483 62.125 337.788-18.476 111.413-122.569 191.456-238.674 191.456v-51.2c92.029 0 173.964-63.004 188.173-148.688 19.536-116.206 3.79-229.752-51.247-296.93-47.507-58.12-58.798-104.239-44.915-137.267 2.369-5.636 5.126-9.901 7.735-12.851 39.285-52.153 87.504-76.622 165.952-95.156 7.455-1.761 11.471-2.665 27.227-6.166 17.312-3.847 26.368-5.954 36.28-8.539 31.988-8.614 53.475-17.323 71.45-30.113 43.583-30.885 58.614-89.766 55.654-151.757h-912.567z" />
<glyph unicode="&#xe909;" glyph-name="Set-up" d="M412.932 941.257h192.058c22.971 0 39.457-20.323 41.526-42.748l14.097-90.25c2.054-13.118 10.329-24.536 22.316-30.795 8.592-4.473 16.244-8.681 23.429-12.925 14.759-8.698 31.766-10.369 46.548-4.541l85.131 33.506c20.483 6.722 39.349 2.074 51.703-10.107l3.68-4.751 96.647-166.684c9.583-18.897 7.065-38.776-10.86-56.275l-72.013-57.422c-10.368-8.268-16.195-20.738-15.738-33.641 0.182-5.084 0.216-9.147 0.216-18.986 0-4.352-0.199-8.613-0.584-12.846-1.342-14.937 4.791-28.73 16.162-36.524l79.174-54.272c20.789-11.538 23.418-37.963 12.629-59.068l-95.412-164.45c-10.413-20.535-38.271-29.676-57.252-20.257l-88.315 34.811c-12.14 4.79-26.021 3.44-37.742-3.683-8.395-5.112-17.416-10.131-27.773-15.528-12.025-6.271-20.289-17.677-22.329-30.817l-13.907-89.016c-1.56-22.019-25.574-39.26-46.512-39.26h-192.081c-24.54 0-45.298 16.905-46.534 39.401l-13.889 88.896c-2.037 13.119-10.301 24.526-22.32 30.793-10.322 5.378-19.356 10.402-27.785 15.521-11.74 7.134-25.599 8.483-37.747 3.69l-89.559-35.251c-20.469-6.727-39.36-2.076-51.713 10.104l-3.68 4.751-96.647 166.684c-9.589 18.909-7.058 38.776 10.879 56.25l71.978 57.412c10.381 8.293 16.211 20.771 15.754 33.672-0.182 5.066-0.216 9.137-0.216 18.99 0 4.273 0.21 8.486 0.605 12.832 1.38 15.473-4.629 29.81-16.027 38.379l-73.848 55.666c-16.449 16.181-25.45 40.957-12.247 57.673l94.974 163.727 3.68 4.751c16.367 16.137 34.463 22.078 58.033 14.27l83.35-34.21c12.88-5.299 27.391-3.974 38.551 3.509 10.743 7.19 19.322 12.553 27.918 17.299 11.652 6.429 19.28 16.761 21.030 28.364l14.145 94.037c1.508 22.045 25.561 39.319 46.518 39.319zM625.59 89.958c4.253 27.39 21.394 51.049 46.085 63.925 9.536 4.969 17.71 9.517 25.178 14.064 23.652 14.373 52.327 17.162 77.795 7.113l89.994-35.553c-1.437 0.707 94.745 165.009 94.745 165.009 0.451 0.886 0.525 0.23 5.361-2.148l-2.802 1.638-80.239 55.002c-25.168 17.253-38.384 46.979-35.611 77.852 0.265 2.917 0.4 5.814 0.4 8.78 0 9.279-0.031 13.017-0.188 17.377-0.968 27.318 11.241 53.443 32.72 70.571l70.237 55.846c1.665 1.642-92.402 162.198-92.402 162.198-0.742 0.051-1.857-0.088-3.502-0.605l-83.889-33.058c-28.036-11.053-59.573-7.955-86.072 7.662-6.451 3.811-13.411 7.639-21.356 11.774-24.646 12.868-41.782 36.511-46.066 63.874l-14.269 91.627c-0.274 2.913-0.486 3.174 3.281 3.174h-192.058c0.508 0-15.991-94.908-15.991-94.908-3.92-25.994-20.302-48.182-43.871-61.187-7.28-4.020-14.857-8.756-24.607-15.282-23.795-15.954-54.2-18.732-80.865-7.761l-81.808 33.64c-3.695 1.214-5.068 1.124-8.612-2.103l-92.191-158.931c0.735-1.491 1.493-2.774 1.392-2.862l71.582-53.715c24.209-18.202 36.629-47.835 33.889-78.553-0.28-3.084-0.423-5.945-0.423-8.781 0-9.288 0.031-13.036 0.188-17.377 0.968-27.311-11.235-53.43-32.717-70.592l-70.236-55.867c-1.671-1.643 92.397-162.154 92.397-162.154 0.745-0.052 1.862 0.085 3.504 0.603l88.321 34.804c25.475 10.052 54.127 7.264 77.775-7.107 7.498-4.554 15.698-9.113 25.211-14.071 24.685-12.872 41.825-36.531 46.076-63.901l14.098-90.235 0.271-3.487c0 3.251-0.472 3.649 1.416 3.649h192.081c-0.511 0 15.782 90.052 15.782 90.052zM512 246.107c-111.496 0-201.893 90.397-201.893 201.893s90.397 201.893 201.893 201.893c111.496 0 201.893-90.397 201.893-201.893s-90.397-201.893-201.893-201.893zM512 291.283c86.546 0 156.717 70.171 156.717 156.717s-70.171 156.717-156.717 156.717c-86.546 0-156.717-70.171-156.717-156.717s70.171-156.717 156.717-156.717z" />
<glyph unicode="&#xe90a;" glyph-name="meiyong" d="M133.735 300.525c14.019-3.768 28.717-5.506 46.198-5.506l119.753-0.48c-14.857-67.905-17.356-169.781-17.356-230.537 0-70.585 57.374-128.001 127.875-128.001 70.496 0 127.875 57.435 127.875 128.001v25.603c0 141.155 114.735 256.001 255.748 256.001h127.875c56.417 0 102.298 45.925 102.298 102.397v409.605c0 56.472-45.88 102.392-102.298 102.392h-127.875c-14.138 0-25.579-11.452-25.579-25.603v-538.906c-157.292-13.069-281.329-145.136-281.329-305.906v-25.604c0-42.361-34.42-76.814-76.715-76.814-42.299 0-76.72 34.453-76.72 76.814 0 115.328 8.941 207.635 23.902 246.872 3 7.848 1.939 16.674-2.822 23.604-4.74 6.924-12.581 11.109-20.981 11.128l-153.553 0.601c-12.978 0-23.52 1.201-33.101 3.742-68.115 18.277-108.674 88.604-90.435 156.767 20.421 76.214 124.875 340.401 134.695 365.184 13.86 22.823 38.264 36.414 65.582 36.475 1.577 0 3.099 0.159 4.576 0.421l536.49 0.020c14.143 0 25.584 11.452 25.584 25.603s-11.441 25.603-25.584 25.603l-541.067-0.020c-1.761 0-3.481-0.179-5.122-0.521-43.758-1.802-83.875-25.761-105.615-63.476-0.62-1.083-1.14-2.203-1.602-3.346-4.696-11.789-115.235-290.231-137.312-372.669-25.579-95.408 31.215-193.86 126.616-219.443v0 0zM819.41 908.833h102.292c28.202 0 51.161-22.981 51.161-51.206v-409.605c0-28.229-22.96-51.211-51.161-51.211h-102.292v512.023z" />
<glyph unicode="&#xe90b;" glyph-name="youyong" d="M890.265 595.475c-14.019 3.768-28.717 5.506-46.198 5.506l-119.753 0.48c14.857 67.905 17.356 169.781 17.356 230.537 0 70.585-57.374 128.001-127.875 128.001-70.496 0-127.875-57.435-127.875-128.001v-25.603c0-141.155-114.735-256.001-255.748-256.001h-127.875c-56.417 0-102.298-45.925-102.298-102.397v-409.605c0-56.472 45.88-102.392 102.298-102.392h127.875c14.138 0 25.579 11.452 25.579 25.603v538.906c157.292 13.069 281.329 145.136 281.329 305.906v25.604c0 42.361 34.42 76.814 76.715 76.814 42.299 0 76.72-34.453 76.72-76.814 0-115.328-8.941-207.635-23.902-246.872-3-7.848-1.939-16.674 2.822-23.604 4.74-6.924 12.581-11.109 20.981-11.128l153.553-0.601c12.978 0 23.52-1.201 33.101-3.742 68.115-18.277 108.674-88.604 90.435-156.767-20.421-76.214-124.875-340.401-134.695-365.184-13.86-22.823-38.264-36.414-65.582-36.475-1.577 0-3.099-0.159-4.576-0.421l-536.49-0.020c-14.143 0-25.584-11.452-25.584-25.603s11.441-25.603 25.584-25.603l541.067 0.020c1.761 0 3.481 0.179 5.122 0.521 43.758 1.802 83.875 25.761 105.615 63.476 0.62 1.083 1.14 2.203 1.602 3.346 4.696 11.789 115.235 290.231 137.312 372.669 25.579 95.408-31.215 193.86-126.616 219.443v0 0zM204.59-12.833h-102.292c-28.202 0-51.161 22.981-51.161 51.206v409.605c0 28.229 22.96 51.211 51.161 51.211h102.292v-512.023z" />
<glyph unicode="&#xe90c;" glyph-name="zuoji" horiz-adv-x="1293" d="M1172.062 137.888c0-201.433-91.985-201.023-536.154-201.023-444.139 0-536.125-0.41-536.125 201.023 0 219.851 240.036 658.494 536.125 658.494 296.111 0 536.154-438.644 536.154-658.494zM637.476 702.107c-125.812 0-227.793-102.986-227.793-230.029 0-127.057 101.98-230.029 227.793-230.029 125.794 0 227.778 102.971 227.778 230.029 0.001 127.042-101.983 230.029-227.778 230.029zM160.027 532.779c93.384 150.967 254.815 312.027 474.762 312.027 219.891 0 391.811-174.3 469.727-310.691 40.267-67.682 117.592-60.517 151.295 0 21.659 45.286 89.339 424.627-621.022 424.627-718.335-0.963-644.108-391.94-618.886-424.628 44.675-68.585 128.843-33.619 144.123-1.334z" />
<glyph unicode="&#xe90d;" glyph-name="gongju" horiz-adv-x="839" d="M515.298 249.026h-200.714c-10.163 0-18.389 8.291-18.389 18.506s8.226 18.506 18.389 18.506h200.714c10.163 0 18.389-8.291 18.389-18.506s-8.226-18.506-18.389-18.506zM597.141-60.541c-10.163 0-18.389 8.291-18.389 18.506v160.299c0 6.193 3.077 11.98 8.202 15.409l215.070 143.891v516.775l-168.337 112.628v-209.019c0-6.206-3.077-11.992-8.202-15.422l-195.896-131.072c-6.167-4.121-14.209-4.121-20.375 0l-195.896 131.072c-5.125 3.43-8.202 9.228-8.202 15.422v209.019l-168.337-112.628v-516.775l215.070-143.891c5.125-3.43 8.214-9.216 8.214-15.409v-160.299c0-10.215-8.238-18.506-18.389-18.506-10.163 0-18.389 8.291-18.389 18.506v150.38l-215.083 143.903c-5.125 3.43-8.202 9.216-8.202 15.409v536.601c0 6.206 3.077 11.98 8.202 15.409l205.116 137.241c5.652 3.763 12.922 4.108 18.868 0.901 5.983-3.22 9.71-9.5 9.71-16.31v-233.632l177.507-118.772 177.507 118.772v233.632c0 6.81 3.739 13.090 9.71 16.31s13.216 2.875 18.868-0.901l205.116-137.241c5.125-3.43 8.202-9.204 8.202-15.409v-536.601c0-6.193-3.077-11.98-8.202-15.409l-215.070-143.903v-150.38c0-10.215-8.226-18.506-18.389-18.506z" />
<glyph unicode="&#xe90e;" glyph-name="call1-copy" horiz-adv-x="965" d="M773.812 205.655c69.115-68.518 81.378-130.527 28.41-193.468-3.125-4.532-6.357-8.86-9.688-12.989-23.868-29.596-48.359-45.15-65.895-50.984-71.916-24.026-162.605 0.468-249.553 60.338l-51.18 39.649c-19.851 13.65-41.245 31.876-64.038 54.175-21.561 21.094-44.103 45.569-67.317 72.77-28.185 33.025-55.928 68.349-82.064 103.666-9.145 12.358-17.44 23.838-24.737 34.149-4.395 6.211-7.494 10.671-8.604 12.335-61.978 82.106-124.128 194.257-155.633 292.778-42.938 134.271-29.731 238.851 57.976 293.781 95.515 56.39 162.388 28.668 215.474-74.988 34.881-60.47 43.9-78.377 49.624-105.709 8.048-38.428-3.431-71.338-37.193-100.869-3.506-3.067-7.257-6.103-11.258-9.114-2.582-1.667-5.109-3.918-8.065-8.327-24.051-35.876-9.475-107.754 81.462-228.141 51.891-62.037 96.161-98.36 132.718-113.976 23.457-10.020 39.924-10.254 50.933-5.631 61.782 60.758 125.635 32.597 218.629-59.446zM283.465 659.936c40.862 35.74 35.953 59.182-21.085 158.113-44.008 85.888-86.794 103.624-160.425 60.162-125.194-78.42-46.959-323.069 109.168-529.939 1.534-2.246 4.51-6.53 8.778-12.56 7.141-10.091 15.273-21.346 24.246-33.471 25.631-34.635 52.828-69.264 80.363-101.527 22.498-26.361 44.261-49.991 64.902-70.185 21.299-20.838 41.039-37.655 59.705-50.528l51.186-39.653c76.867-52.895 155.734-74.197 213.881-54.771 2.084 0.693 6.843 2.893 13.411 7.065 11.55 7.335 23.244 17.592 34.283 31.281 2.714 3.365 5.358 6.906 9.053 12.109 39.009 46.456 31.164 86.128-24.836 141.643-78.591 77.787-123.809 97.73-162.857 58.628-2.743-2.362-6.995-5.074-12.806-7.514-52.339-21.979-128.741 10.657-229.716 131.414-100.555 133.076-118.592 222.022-83.359 274.579 6.040 9.009 12.452 14.968 17.78 18.383 2.983 2.268 5.757 4.525 8.327 6.773zM545.798 742.929c111.794-46.24 186.216-155.398 186.216-278.317 0-12.382-0.733-24.622-2.192-36.721-1.302-10.798 6.396-20.606 17.193-21.908s20.606 6.396 21.908 17.193c1.648 13.666 2.476 27.48 2.476 41.436 0 138.999-84.156 262.433-210.547 314.711-10.050 4.157-21.567-0.62-25.724-10.67s0.62-21.567 10.67-25.724zM578.839 921.571c196.671-63.62 332.516-247.207 332.516-456.968 0-24.4-1.817-48.569-5.411-72.426-1.62-10.754 5.785-20.786 16.539-22.406s20.786 5.785 22.406 16.539c3.886 25.795 5.85 51.926 5.85 78.293 0 226.972-146.976 425.602-359.778 494.441-10.348 3.347-21.45-2.328-24.797-12.675s2.328-21.45 12.675-24.797z" />
<glyph unicode="&#xe90f;" glyph-name="dengzhu-copy" horiz-adv-x="918" d="M683.793-22.025c38.77 0 70.257 31.728 70.257 70.939v673.599c0 39.198-31.49 70.924-70.257 70.924h-576.756c-38.777 0-70.257-31.721-70.257-70.924v-673.599c0-39.217 31.478-70.939 70.257-70.939h576.756zM683.793-57.335h-576.756c-58.342 0-105.568 47.592-105.568 106.249v673.599c0 58.645 47.229 106.234 105.568 106.234h576.756c58.329 0 105.568-47.594 105.568-106.234v-673.599c0-58.652-47.236-106.249-105.568-106.249zM217.476 922.521h530.37c70.663 0 128.011-57.793 128.011-129.14v-634.214c0-9.751 7.904-17.655 17.655-17.655s17.655 7.904 17.655 17.655v634.214c0 90.788-73.096 164.451-163.321 164.451h-530.37c-9.751 0-17.655-7.904-17.655-17.655s7.904-17.655 17.655-17.655z" />
<glyph unicode="&#xe910;" glyph-name="fangan-copy" horiz-adv-x="1122" d="M1060.653 886.801l-147.928-779.011-292.703 103.268c-10.256 3.618-21.504-1.762-25.122-12.019s1.762-21.504 12.019-25.122l314.324-110.897c11.373-4.013 23.649 3.048 25.898 14.897l159.638 840.677c3.043 16.024-13.599 28.59-28.178 21.275l-1049.662-526.651c-15.522-7.788-14.097-30.394 2.279-36.172l314.432-110.933c10.256-3.618 21.504 1.763 25.122 12.019s-1.763 21.504-12.019 25.122l-270.765 95.527 972.663 488.018zM1067.878 935.337l-567.785-639.1c-27.314-30.759-42.413-70.465-42.413-111.557v-228.724c0-10.876 8.817-19.692 19.692-19.692s19.692 8.817 19.692 19.692v228.724c0 31.449 11.562 61.852 32.475 85.403l567.782 639.096c7.223 8.131 6.488 20.577-1.643 27.801s-20.577 6.488-27.801-1.643z" />
<glyph unicode="&#xe911;" glyph-name="ruanjian-copy" horiz-adv-x="1158" d="M29.73-54.457c-12.294 0-22.261 9.967-22.261 22.261v968.473c0 12.294 9.967 22.261 22.261 22.261h1095.802c12.294 0 22.261-9.967 22.261-22.261v-968.473c0-12.294-9.967-22.261-22.261-22.261h-1095.802zM1103.271-9.936v923.951h-1051.281v-923.951h1051.281zM621.276 360.522c8.329-15.986 31.212-15.96 39.506 0.044l139.705 269.57 39.892-87.446c3.619-7.932 11.535-13.022 20.253-13.022h140.37c12.294 0 22.261 9.967 22.261 22.261s-9.967 22.261-22.261 22.261h-126.057l-52.929 116.025c-7.704 16.888-31.477 17.484-40.017 1.004l-141.034-272.134-204.346 392.172c-8.364 16.051-31.369 15.942-39.58-0.188l-120.585-236.88h-128.993c-12.294 0-22.261-9.967-22.261-22.261s9.967-22.261 22.261-22.261h142.64c8.374 0 16.039 4.699 19.838 12.162l107.169 210.524 204.168-391.832zM29.73 247.652h1095.802c12.294 0 22.261 9.967 22.261 22.261s-9.967 22.261-22.261 22.261h-1095.802c-12.294 0-22.261-9.967-22.261-22.261s9.967-22.261 22.261-22.261zM163.309 123.981h441.485c12.294 0 22.261 9.967 22.261 22.261s-9.967 22.261-22.261 22.261h-441.485c-12.294 0-22.261-9.967-22.261-22.261s9.967-22.261 22.261-22.261zM804.035 123.981h196.969c12.294 0 22.261 9.967 22.261 22.261s-9.967 22.261-22.261 22.261h-196.969c-12.294 0-22.261-9.967-22.261-22.261s9.967-22.261 22.261-22.261z" />
<glyph unicode="&#xe912;" glyph-name="weixiu-copy" d="M869.258 143.383c-35.106 0-63.631-28.525-63.631-63.702 0-34.679 28.591-63.137 63.631-63.137 35.127 0 63.631 28.404 63.631 63.137 0 35.231-28.437 63.702-63.631 63.702zM869.258 183.54c57.382 0 103.788-46.46 103.788-103.858 0-56.942-46.514-103.294-103.788-103.294-57.176 0-103.788 46.395-103.788 103.294 0 57.355 46.503 103.858 103.788 103.858zM545.294 289.027l246.078-281.913c36.783-42.224 106.76-41.243 149.033 1.090 42.453 41.968 43.306 112.491 0.944 148.997l-283.143 246.112-112.912-114.285zM670.333 445.978l297.294-258.413c60.734-52.337 59.553-150.043 1.101-207.827-58.034-58.118-154.954-59.476-207.623 0.984l-258.328 295.948c-6.914 7.921-6.547 19.835 0.843 27.315l139.257 140.951c7.444 7.535 19.461 7.991 27.455 1.042zM338.178 515.539l25.686-30.373 96.367 97.171-32.185 27.959-89.869-94.758zM439.872 653.217l62.888-54.63c8.765-7.614 9.264-21.053 1.089-29.296l-126.905-127.964c-8.296-8.366-21.979-7.823-29.587 1.173l-51.454 60.841c-6.61 7.816-6.282 19.355 0.763 26.782l115.471 121.753c7.396 7.799 19.622 8.39 27.736 1.341zM231.681 944.175c128.101 0 231.681-103.628 231.681-231.752 0-127.702-103.652-231.187-231.681-231.187-127.982 0-231.681 103.508-231.681 231.187 0 33.407 7.112 65.568 20.634 94.76 5.855 12.64 22.487 15.622 32.369 5.805l74.934-74.44c18.136-18.136 47.998-18.136 66.321 0.136l25.685 25.191c18.31 18.708 18.31 48.814 0.203 66.922l-69.17 68.676c-10.659 10.583-6.35 28.693 7.933 33.341 23.086 7.513 47.575 11.361 72.771 11.361zM231.681 904.019c-8.988 0-17.847-0.584-26.536-1.739l43.345-43.036c33.79-33.79 33.79-89.087-0.137-123.745l-25.856-25.363c-33.884-33.793-89.143-33.793-122.908-0.028l-52.721 52.373c-4.425-16.013-6.711-32.807-6.711-50.057 0-105.484 85.704-191.030 191.524-191.030 105.866 0 191.524 85.521 191.524 191.030 0 105.95-85.605 191.595-191.524 191.595zM322.285 367.101l-221.932-223.626c-22.158-22.474-22.272-58.643-0.1-80.401l29.794-29.796c21.702-22.168 58.175-22.168 80.026 0.098l222.032 223.726c21.823 21.823 21.823 58.113 0 80.3l-29.581 29.581c-22.504 22.078-58.63 22.189-80.239 0.117zM430.973 367.165c-7.776-7.906-20.489-8.011-28.394-0.235-7.959 7.958-7.959 20.671-0.118 28.512 7.794 7.794 20.403 7.841 28.255 0.139 0.047-0.046 29.902-29.901 29.902-29.901 37.349-37.971 37.349-99.507-0.063-136.919l-221.899-223.592c-37.518-38.232-99.858-38.232-137.153-0.135l-29.51 29.511c-38.041 37.33-37.848 98.974-0.188 137.17l221.882 223.575c37.23 38.029 98.854 37.816 137.029 0.291 7.929-7.947 7.988-20.557 0.257-28.417zM540.006 539.255l-151.115-152.242c-12.642-12.994-12.642-33.675-0.194-46.123l20.352-20.352c12.41-12.453 33.468-12.453 45.823-0.055l150.746 152.441c12.971 13.015 12.971 33.395-0.2 46.178l-19.475 20.103c-13.002 12.511-33.533 12.455-45.938 0.050zM614.515 539.373c-7.746-7.935-20.458-8.087-28.393-0.341-8.111 8.361-7.909 21.072 0.056 28.788 7.804 7.56 20.166 7.519 27.919 0.021 0.159-0.154 19.719-20.354 19.719-20.354 28.917-28.035 28.917-74.143 0.301-102.856l-150.746-152.44c-28.104-28.201-74.663-28.201-102.742-0.025l-20.327 20.327c-28.066 28.066-28.066 73.872-0.053 102.664l151.309 152.438c28.115 28.115 73.883 28.14 102.539 0.245 8.015-8.325 8.011-20.691 0.418-28.468zM632.594 588.706l19.112-19.312 175.383 175.504-19.112 19.312-175.383-175.504zM822.317 806.808l47.36-47.854c7.77-7.851 7.739-20.503-0.069-28.316l-203.768-203.91c-7.869-7.875-20.643-7.844-28.474 0.069l-47.36 47.854c-7.77 7.851-7.739 20.503 0.069 28.316l203.768 203.91c7.869 7.875 20.643 7.844 28.474-0.069zM795.916 765.195l31.495-31.532 95.838 95.511-31.501 31.798-95.832-95.778zM906.083 903.561l59.782-60.347c7.788-7.861 7.747-20.541-0.091-28.353l-124.223-123.8c-7.848-7.822-20.549-7.807-28.379 0.033l-59.853 59.924c-7.835 7.844-7.829 20.554 0.012 28.391l124.294 124.223c7.868 7.863 20.629 7.832 28.458-0.071z" />
<glyph unicode="&#xe913;" glyph-name="xianlan-copy" horiz-adv-x="845" d="M28.423 397.752c-8.977 0-16.254 7.277-16.254 16.254v137.93c0 8.977 7.277 16.254 16.254 16.254h786.409c8.977 0 16.254-7.277 16.254-16.254v-137.93c0-8.977-7.277-16.254-16.254-16.254h-786.409zM798.578 430.26v105.422h-753.901v-105.422h753.901zM28.423-61.353c-8.977 0-16.254 7.277-16.254 16.254v137.93c0 8.977 7.277 16.254 16.254 16.254h786.409c8.977 0 16.254-7.277 16.254-16.254v-137.93c0-8.977-7.277-16.254-16.254-16.254h-786.409zM798.578-28.845v105.422h-753.901v-105.422h753.901zM743.157 253.417c0-54.832 30.927-104.099 79.055-128.589 5.45-2.773 8.883-8.371 8.883-14.486v-17.512c0-8.977-7.277-16.254-16.254-16.254h-786.409c-8.977 0-16.254 7.277-16.254 16.254v17.512c0 6.115 3.432 11.713 8.883 14.486 48.128 24.49 79.055 73.757 79.055 128.589s-30.927 104.099-79.055 128.589c-5.45 2.773-8.883 8.371-8.883 14.486v17.512c0 8.977 7.277 16.254 16.254 16.254h786.409c8.977 0 16.254-7.277 16.254-16.254v-17.512c0-6.115-3.432-11.713-8.883-14.486-48.128-24.49-79.055-73.757-79.055-128.589zM785.528 109.083c-46.215 32.617-74.879 85.9-74.879 144.333s28.664 111.717 74.879 144.333c4.21 2.971 8.565 5.771 13.058 8.387 1.661 0.968 3.341 1.91 5.040 2.827 1.271 0.686 2.552 1.357 3.843 2.014l-8.883-14.486v17.512l16.254-16.254h-786.409l16.254 16.254v-17.512l-8.883 14.486c1.291-0.657 2.572-1.329 3.843-2.014 1.698-0.917 3.379-1.859 5.040-2.827 4.493-2.616 8.848-5.416 13.058-8.387 46.215-32.617 74.879-85.9 74.879-144.333s-28.664-111.717-74.879-144.333c-4.21-2.971-8.565-5.771-13.058-8.387-1.661-0.968-3.341-1.91-5.040-2.827-1.271-0.686-2.552-1.357-3.843-2.014l8.883 14.486v-17.512l-16.254 16.254h786.409l-16.254-16.254v17.512l8.883-14.486c-1.291 0.657-2.572 1.329-3.843 2.014-1.698 0.917-3.379 1.859-5.040 2.827-4.493 2.616-8.848 5.416-13.058 8.387zM118.519 936.178v-384.244c0-8.977 7.277-16.254 16.254-16.254s16.254 7.277 16.254 16.254v384.244c0 8.977-7.277 16.254-16.254 16.254s-16.254-7.277-16.254-16.254zM626.455 936.178v-384.244c0-8.977 7.277-16.254 16.254-16.254s16.254 7.277 16.254 16.254v384.244c0 8.977-7.277 16.254-16.254 16.254s-16.254-7.277-16.254-16.254z" />
<glyph unicode="&#xe914;" glyph-name="orders" horiz-adv-x="926" d="M884.584 619.334c28.18 28.18 32.106 71.736 6.276 97.535l-44.53 44.53c-25.815 25.815-69.364 21.898-97.526-6.264l-356.137-356.137c-13.267-13.267-21.669-30.542-23.265-48.299l-8.756-97.222c-1.096-12.169 9.040-22.389 21.217-21.393l97.896 8.003c17.95 1.453 35.461 9.884 48.877 23.3l355.949 355.949zM476.565 279.34l-97.911-8.004 21.217-21.393 8.757 97.226c0.751 8.351 5.003 17.094 11.888 23.979l356.137 356.137c13.781 13.781 32.617 15.475 41.828 6.264l44.538-44.538c9.21-9.199 7.513-28.031-6.285-41.828l-355.949-355.949c-6.953-6.953-15.799-11.212-24.221-11.894zM651.304 50.113c24.053 0 43.574 19.522 43.574 43.574v254.24c0 10.876-8.817 19.692-19.692 19.692s-19.692-8.817-19.692-19.692v-254.24c0-2.301-1.889-4.19-4.19-4.19h-513.634c-10.876 0-19.692-8.817-19.692-19.692s8.817-19.692 19.692-19.692h513.634zM651.304 910.141c2.301 0 4.19-1.889 4.19-4.19v-165.185c0-10.876 8.817-19.692 19.692-19.692s19.692 8.817 19.692 19.692v165.185c0 24.053-19.522 43.574-43.574 43.574h-513.634c-10.876 0-19.692-8.817-19.692-19.692s8.817-19.692 19.692-19.692h513.634zM10.475 69.811c0-70.253 56.944-127.204 127.204-127.204 10.876 0 19.692 8.817 19.692 19.692v752.518c0 10.876-8.817 19.692-19.692 19.692-48.494 0-87.819 39.325-87.819 87.819s39.325 87.819 87.819 87.819c10.876 0 19.692 8.817 19.692 19.692s-8.817 19.692-19.692 19.692c-70.246 0-127.204-56.958-127.204-127.204s56.958-127.204 127.204-127.204l-19.692 19.692v-752.518l19.692 19.692c-48.508 0-87.819 39.317-87.819 87.819v752.518c0 10.876-8.817 19.692-19.692 19.692s-19.692-8.817-19.692-19.692v-752.518z" />
<glyph unicode="&#xe915;" glyph-name="trophy" horiz-adv-x="945" d="M335.414 515.184l15.802-7.942-301.669 405.682c0.857-1.153 0.038-2.784-1.41-2.784h244.855c-0.561 0 316.181-426.399 316.181-426.399l15.802 31.443h-289.561zM640.778 507.242l-317.591 427.114c-7.13 9.551-18.319 15.17-30.195 15.17h-244.855c-30.941 0-48.651-35.273-30.196-60.099l301.671-405.685c3.716-4.997 9.575-7.942 15.802-7.942h289.561c16.19 0 25.463 18.451 15.802 31.443zM938.221 889.424c18.456 24.828 0.746 60.102-30.194 60.102h-244.834c-11.909 0-23.112-5.631-30.219-15.195l-169.253-227.934c-6.484-8.732-4.661-21.066 4.070-27.55s21.066-4.661 27.55 4.070l169.249 227.928c-0.328-0.442-0.85-0.704-1.397-0.704h244.834c-1.448 0-2.267 1.632-1.412 2.782l-301.668-405.68c-6.49-8.727-4.676-21.063 4.052-27.553s21.063-4.676 27.553 4.052l301.669 405.682zM318.645 430.313c-0.688 0-1.257 0.569-1.257 1.257v42.967c0 0.699 0.558 1.257 1.257 1.257h318.869c0.699 0 1.257-0.558 1.257-1.257v-42.967c0-0.688-0.569-1.257-1.257-1.257h-318.869zM678.155 431.569v42.967c0 22.457-18.198 40.642-40.642 40.642h-318.869c-22.444 0-40.642-18.185-40.642-40.642v-42.967c0-22.44 18.202-40.642 40.642-40.642h318.869c22.44 0 40.642 18.202 40.642 40.642zM478.085-23.507c-113.807 0-206.057 92.256-206.057 206.057s92.25 206.057 206.057 206.057c113.793 0 206.057-92.264 206.057-206.057s-92.264-206.057-206.057-206.057zM478.085 427.991c-135.559 0-245.442-109.89-245.442-245.442s109.883-245.442 245.442-245.442c135.545 0 245.442 109.897 245.442 245.442s-109.897 245.442-245.442 245.442zM478.083 319.579c10.876 0 19.692 8.817 19.692 19.692s-8.817 19.692-19.692 19.692c-97.438 0-176.414-78.976-176.414-176.414 0-10.876 8.817-19.692 19.692-19.692s19.692 8.817 19.692 19.692c0 75.687 61.343 137.029 137.029 137.029z" />
<glyph unicode="&#xe916;" glyph-name="woman" horiz-adv-x="969" d="M489.076 942.178c-11.331-4.711-21.813-10.993-31.161-18.132-11.331-8.566-19.547-17.132-24.929-24.271-120.962 12.135-185.976-74.097-185.976-223.004 0-14.42-1.416-29.696-4.249-45.543-8.357-46.114-27.903-95.655-55.382-146.195-13.314-24.128-27.337-47.114-41.501-67.672-4.957-7.281-9.49-13.706-13.598-19.274-2.408-3.284-4.108-5.568-4.957-6.567l-13.031-16.704h282.717c1.133-10.422 0-22.986-5.099-36.977-8.215-23.271-25.637-46.4-54.815-68.386-29.178-21.844-68.838-41.688-120.112-58.821-63.031-20.844-110.481-47.685-144.050-78.951-27.62-25.556-44.759-53.253-53.399-81.521-6.091-19.274-7.365-36.406-5.949-49.969 0.142-1.856 0.425-3.141 0.567-3.998l1.7-8.281h618.126v20.559h-600.421c-0.142 10.85 1.416 22.557 5.382 35.692 7.507 24.842 22.946 49.255 47.733 72.526 31.303 29.125 76.345 54.395 136.826 74.525 53.116 17.703 94.617 38.405 125.778 61.819 57.507 43.402 74.079 89.944 67.28 129.206-0.425 2.713-0.991 4.711-1.416 5.996l-2.266 7.138h-257.364c2.266 3.141 4.816 6.71 7.224 10.279 14.447 21.273 29.037 44.687 42.493 69.528 28.47 52.253 48.866 103.793 57.648 152.477 2.974 16.989 4.533 33.408 4.533 49.112 0 140.484 58.498 215.866 169.121 202.017l6.374-0.857 3.541 5.568c0.708 1.285 2.691 3.855 5.524 7.138 4.957 5.854 11.19 11.564 18.272 17.132 8.074 5.996 16.997 11.279 26.77 15.419 26.204 10.993 64.022 10.137 98.866-11.136 51.558-30.981 92.351-101.508 116.005-220.006 23.796-119.497 48.725-203.731 73.512-258.554 7.365-16.561 14.164-28.982 19.972-38.119h-236.401l-2.833-5.711c-0.85-1.856-2.125-4.854-3.399-9.137-7.082-24.128-3.683-50.968 17.705-75.953 11.756-13.706 28.47-25.984 50.708-36.406l8.64 18.56c-19.688 9.28-34.136 19.845-43.909 31.266-16.43 19.131-18.98 38.833-13.598 56.822h275.777l-25.212 18.56c-2.55 2.57-4.391 4.711-6.516 7.852-6.657 9.137-14.164 22.415-22.521 40.689-23.938 53.395-48.583 136.058-71.954 254.128-24.646 123.78-68.271 199.162-125.353 233.712-24.079 14.562-49.575 20.987-72.946 20.987-16.147 0-31.303-3.141-44.476-8.566v0zM899.696 160.52l-120.962-123.066c-5.382-5.425-14.164-5.425-19.405 0.143l-54.674 57.821c-5.241 5.425-4.957 14.134 0.425 19.417 5.382 5.14 14.023 4.997 19.263-0.571l44.901-47.542 111.189 113.073c5.241 5.425 13.881 5.425 19.122 0.143 5.382-5.425 5.382-13.991 0.142-19.417zM802.247 287.156c-91.784 0-166.146-75.239-166.146-167.896 0-92.8 74.362-168.039 166.146-168.039 91.642 0 166.004 75.239 166.004 168.039 0 92.657-74.362 167.896-166.004 167.896z" />
<glyph unicode="&#xe917;" glyph-name="Cancellation" d="M350.163 432c-8.837 0-16 7.163-16 16s7.163 16 16 16h641.837c8.837 0 16-7.163 16-16s-7.163-16-16-16h-641.837zM361.481 431.099v22.627l235.162-235.162c6.248-6.248 6.248-16.379 0-22.627s-16.379-6.248-22.627 0l-235.162 235.162c-6.248 6.248-6.248 16.379 0 22.627l235.162 235.162c6.248 6.248 16.379 6.248 22.627 0s6.248-16.379 0-22.627l-235.162-235.162zM976 880c0 12.379-10.021 22.4-22.4 22.4h-875.174c-12.379 0-22.4-10.021-22.4-22.4v-875.174c0-12.368 10.028-22.4 22.4-22.4h875.174c12.372 0 22.4 10.032 22.4 22.4v157.075c0 8.837 7.163 16 16 16s16-7.163 16-16v-157.075c0-30.039-24.353-54.4-54.4-54.4h-875.174c-30.047 0-54.4 24.361-54.4 54.4v875.174c0 30.053 24.347 54.4 54.4 54.4h875.174c30.053 0 54.4-24.347 54.4-54.4v-155.866c0-8.837-7.163-16-16-16s-16 7.163-16 16v155.866z" />
<glyph unicode="&#xe918;" glyph-name="Correct-complete" d="M448.994 252.98c13.040-13.040 34.182-13.040 47.222 0l318.33 318.33c13.040 13.040 13.040 34.182 0 47.222s-34.182 13.040-47.222 0l-318.33-318.33h47.222l-205.475 205.475c-13.040 13.040-34.182 13.040-47.222 0s-13.040-34.182 0-47.222l205.475-205.475zM1024 448c0 282.77-229.23 512-512 512s-512-229.23-512-512c0-282.77 229.23-512 512-512s512 229.23 512 512zM44.522 448c0 258.181 209.297 467.478 467.478 467.478s467.478-209.297 467.478-467.478c0-258.181-209.297-467.478-467.478-467.478s-467.478 209.297-467.478 467.478z" />
<glyph unicode="&#xe919;" glyph-name="data" d="M498.507 426.74h14.371l-471.902 237.188v-28.592l471.902 237.188h-14.371l471.902-237.188v28.592l-471.902-237.188zM984.78 663.928l-471.902 237.188c-4.521 2.272-9.85 2.272-14.371 0l-471.902-237.188c-11.753-5.907-11.753-22.684 0-28.592l471.902-237.188c4.521-2.272 9.85-2.272 14.371 0l471.902 237.188c11.753 5.907 11.753 22.684 0 28.592zM26.604 460.24c-11.754-5.906-11.755-22.685-0.001-28.592l471.902-237.188c4.521-2.272 9.85-2.272 14.371 0l471.902 237.188c11.753 5.907 11.753 22.685 0 28.592l-76.244 38.321c-7.895 3.968-17.513 0.785-21.481-7.111s-0.785-17.513 7.111-21.481l76.244-38.321v28.592l-471.902-237.188h14.371l-471.902 237.188-0.001-28.592 76.261 38.321c7.896 3.968 11.080 13.585 7.113 21.48s-13.585 11.080-21.48 7.113l-76.261-38.321zM26.604 265.142c-11.754-5.906-11.755-22.685-0.001-28.592l471.902-237.188c4.521-2.272 9.85-2.272 14.371 0l471.902 237.188c11.753 5.907 11.753 22.685 0 28.592l-76.244 38.321c-7.895 3.968-17.513 0.785-21.481-7.111s-0.785-17.513 7.111-21.481l76.244-38.321v28.592l-471.902-237.188h14.371l-471.902 237.188-0.001-28.592 76.261 38.321c7.896 3.968 11.080 13.585 7.113 21.48s-13.585 11.080-21.48 7.113l-76.261-38.321z" />
<glyph unicode="&#xe91a;" glyph-name="Doubt" d="M1006.933 448c0 273.344-221.589 494.933-494.933 494.933s-494.933-221.589-494.933-494.933c0-273.344 221.589-494.933 494.933-494.933s494.933 221.589 494.933 494.933zM51.2 448c0 254.493 206.307 460.8 460.8 460.8s460.8-206.307 460.8-460.8c0-254.493-206.307-460.8-460.8-460.8s-460.8 206.307-460.8 460.8zM510.635 686.933c-43.008 0-76.8-13.517-100.762-41.779-22.118-25.805-33.792-58.982-34.406-100.762h36.864c0.614 31.949 7.987 57.754 22.733 76.8 16.589 22.118 41.165 32.563 73.728 32.563 28.877 0 51.61-7.373 67.584-23.347 14.746-15.36 22.733-36.25 22.733-62.669 0-18.432-6.758-35.635-19.046-52.224-4.915-6.144-14.746-15.974-28.877-29.491-29.491-25.805-47.923-48.538-56.525-66.97-7.373-14.746-11.059-31.334-11.059-49.152v-17.818h37.478v17.818c0 17.203 4.301 33.178 12.902 47.309 6.144 11.059 16.589 22.733 31.334 35.021 25.19 23.347 41.165 38.707 48.538 47.309 14.746 20.275 22.733 43.622 22.733 69.427 0 35.635-11.059 63.898-33.178 84.787-22.733 22.118-53.453 33.178-92.774 33.178v0zM502.647 301.090c-8.602 0-15.974-2.458-21.504-8.602-6.758-5.53-9.83-12.902-9.83-22.118 0-8.602 3.072-15.36 9.83-21.504 5.53-6.144 12.902-9.216 21.504-9.216s15.974 3.072 22.118 8.602c6.144 6.144 9.216 13.517 9.216 22.118 0 9.216-3.072 16.589-9.216 22.118-6.144 6.144-13.517 8.602-22.118 8.602v0z" />
<glyph unicode="&#xe91b;" glyph-name="checkmark" d="M512 960v0c282.75 0 512-229.25 512-512s-229.25-512-512-512c-282.75 0-512 229.25-512 512s229.25 512 512 512zM452.938 375.437c-16.312-16.437-42.563-16-58.563 1l-72.749 77.314c-16.062 17-42.438 16.624-58.376-0.25l-4.437-4.75c-16.187-17.125-16-45.062 0.312-62.125l140.438-147.501c13.437-14.062 35.187-14.062 48.624 0 0.813 0.875 316.813 324.938 316.813 324.938 16.25 16.688 16.062 43.501-0.626 60.062l-2.938 2.938c-16.562 16.501-43.25 16.501-59.562 0l-248.938-251.626z" />
<glyph unicode="&#xe91c;" glyph-name="error" d="M1024 448c0 282.77-229.23 512-512 512s-512-229.23-512-512c0-282.77 229.23-512 512-512s512 229.23 512 512zM44.522 448c0 258.181 209.297 467.478 467.478 467.478s467.478-209.297 467.478-467.478c0-258.181-209.297-467.478-467.478-467.478s-467.478 209.297-467.478 467.478zM573.217 213.333c0-28.175-22.84-51.014-51.014-51.014s-51.014 22.84-51.014 51.014c0 28.175 22.84 51.014 51.014 51.014s51.014-22.84 51.014-51.014zM488.812 355.637c0-18.442 14.95-33.391 33.391-33.391s33.391 14.95 33.391 33.391v388.247c0 18.442-14.95 33.391-33.391 33.391s-33.391-14.95-33.391-33.391v-388.247z" />
<glyph unicode="&#xe91d;" glyph-name="circle-down" d="M471.763 260.671l80.454-0.001-455.101 455.111c-22.216 22.217-58.236 22.217-80.453 0.001s-22.217-58.236-0.001-80.453l455.101-455.111c22.216-22.217 58.237-22.217 80.454-0.001l455.111 455.111c22.216 22.217 22.216 58.237 0 80.453s-58.237 22.216-80.453 0l-455.111-455.111z" />
<glyph unicode="&#xe91e;" glyph-name="circle-up" d="M552.227 635.329l-80.454 0.001 455.101-455.111c22.216-22.217 58.236-22.217 80.453-0.001s22.217 58.236 0.001 80.453l-455.101 455.111c-22.216 22.217-58.237 22.217-80.454 0.001l-455.111-455.111c-22.216-22.217-22.216-58.237 0-80.453s58.237-22.216 80.453 0l455.111 455.111z" />
<glyph unicode="&#xe91f;" glyph-name="data-message" d="M830.947 21.6c0 2.059 1.694 3.753 3.753 3.753h-744.313c2.059 0 3.753-1.694 3.753-3.753v728.351c0-2.092-1.683-3.775-3.753-3.775h275.723c19.728 0 35.721 15.993 35.721 35.721s-15.993 35.721-35.721 35.721h-275.723c-37.386 0-67.689-30.303-67.689-67.667v-728.351c0-37.397 30.292-67.689 67.689-67.689h744.313c37.397 0 67.689 30.292 67.689 67.689v264.988c0 19.728-15.993 35.721-35.721 35.721s-35.721-15.993-35.721-35.721v-264.988zM995.101 741.594c33.962 33.962 38.686 86.446 7.56 117.572l-53.608 53.629c-31.125 31.125-83.629 26.391-117.576-7.557l-428.781-428.781c-15.969-15.969-26.083-36.782-28.024-58.191l-10.563-117.060c-1.328-14.717 10.929-27.079 25.657-25.875l117.893 9.634c21.636 1.766 42.746 11.933 58.899 28.085l428.543 428.543zM503.782 332.435l-117.895-9.634 25.657-25.875 10.562 117.050c0.911 10.047 6.015 20.551 14.268 28.804l428.781 428.781c16.558 16.558 39.178 18.598 50.216 7.56l53.608-53.629c11.049-11.049 9.015-33.648-7.557-50.22l-428.543-428.543c-8.343-8.343-18.985-13.468-29.098-14.294zM846.471 658.796c8.838-9.74 23.899-10.47 33.638-1.631s10.47 23.899 1.631 33.638l-106.786 117.672c-8.838 9.74-23.899 10.47-33.638 1.631s-10.47-23.899-1.631-33.638l106.786-117.672z" />
<glyph unicode="&#xe920;" glyph-name="message" d="M741.598 522.229c38.071 0 68.932-30.861 68.932-68.932s-30.861-68.932-68.932-68.932c-38.071 0-68.932 30.861-68.932 68.932s30.861 68.932 68.932 68.932zM517.28 522.229c38.071 0 68.932-30.861 68.932-68.932s-30.861-68.932-68.932-68.932c-38.071 0-68.932 30.861-68.932 68.932s30.861 68.932 68.932 68.932zM292.964 522.229c38.071 0 68.932-30.861 68.932-68.932s-30.861-68.932-68.932-68.932c-38.071 0-68.932 30.861-68.932 68.932s30.861 68.932 68.932 68.932zM1012.924 453.297c0-106.265-43.639-206.499-121.294-284.904 2.008 2.029 2.773 5.155 1.859 8.002 12.236-38.2 36.871-75.267 77.255-97.855 8.825-4.934 15.449-13.676 13.625-26.517-1.429-10.060-6.89-15.69-13.978-19.689-5.243-2.958-11.717-4.817-19.862-6.233-14.584-2.535-34.29-3.41-54.998-2.188-55.271 3.261-107.967 19.761-146.721 51.966 3.142-2.602 7.858-3.232 11.869-1.254-73.704-36.519-156.988-55.997-243.399-55.997-273.044 0-495.643 193.802-495.643 434.668s222.598 434.668 495.643 434.668c273.044 0 495.643-193.802 495.643-434.668zM70.401 453.297c0-212.318 199.381-385.906 446.881-385.906 78.905 0 154.78 17.745 221.792 50.948 13.551 6.682 29.405 4.562 40.869-4.929 29.659-24.647 72.684-38.119 118.461-40.82 17.131-1.011 33.111-0.301 43.775 1.552 3.095 0.538 5.010 1.088 4.254 0.661-12.801-7.222-15.98-29.602 0.511-38.823-52.977 29.632-84.239 76.671-99.89 125.53-4.664 14.542-0.799 30.357 9.926 41.191 68.854 69.519 107.182 157.554 107.182 250.595 0 212.318-199.381 385.906-446.881 385.906s-446.881-173.588-446.881-385.906z" />
<glyph unicode="&#xe921;" glyph-name="Location4" d="M514.008 734.010c-88.345 0-160.017-71.646-160.017-159.991 0-88.372 71.672-160.017 160.017-160.017 88.319 0 160.017 71.646 160.017 160.017 0 88.345-71.699 159.991-160.017 159.991zM514.008 321.981c-141.4 0-255.98 114.66-255.98 256.033 0 141.4 114.58 255.98 255.98 255.98 141.454 0 256.033-114.58 256.033-255.98 0-141.374-114.58-256.033-256.033-256.033zM128 575.99c0-212.060 384.037-639.99 384.037-639.99s384.010 427.93 384.010 639.99c0 212.14-171.923 384.010-384.010 384.010-212.14 0-384.037-171.87-384.037-384.010z" />
<glyph unicode="&#xe922;" glyph-name="cross" d="M909.639-28.343c21.734-21.734 56.971-21.734 78.704 0s21.734 56.971 0 78.704l-894.306 894.306c-21.734 21.734-56.971 21.734-78.704 0s-21.734-56.971 0-78.704l894.306-894.306zM15.332 50.361c-21.734-21.734-21.734-56.971 0-78.704s56.971-21.734 78.704 0l894.306 894.306c21.734 21.734 21.734 56.971 0 78.704s-56.971 21.734-78.704 0l-894.306-894.306z" />
<glyph unicode="&#xe923;" glyph-name="Expansion" d="M264.439-24.538c-19.912 20.12-19.912 52.653 0 72.773l392.78 396.879-398.472 402.642c-19.917 20.12-19.917 52.653 0 72.773 19.912 20.12 52.11 20.12 72.022 0l434.488-439.029c19.912-20.12 19.912-52.653 0-72.773l-428.784-433.265c-9.931-10.030-22.964-15.081-36.016-15.081-13.039 0-26.074 5.039-36.017 15.081z" />
<glyph unicode="&#xe924;" glyph-name="rule" d="M897.665 47.996c0-7.789-6.307-14.093-14.117-14.093h-807.679c-7.81 0-14.117 6.304-14.117 14.093v807.702c0 7.789 6.307 14.093 14.117 14.093h807.679c7.81 0 14.117-6.304 14.117-14.093v-109.538c0-11.782 9.551-21.333 21.333-21.333s21.333 9.551 21.333 21.333v109.538c0 31.358-25.414 56.76-56.784 56.76h-807.679c-31.37 0-56.784-25.402-56.784-56.76v-807.702c0-31.358 25.414-56.76 56.784-56.76h807.679c31.37 0 56.784 25.402 56.784 56.76v108.412c0 11.782-9.551 21.333-21.333 21.333s-21.333-9.551-21.333-21.333v-108.412zM255.538 628.010c45.702 0 82.749 37.028 82.749 82.725s-37.048 82.725-82.749 82.725c-45.7 0-82.725-37.026-82.725-82.725s37.026-82.725 82.725-82.725zM255.538 750.794c22.143 0 40.083-17.93 40.083-40.059s-17.94-40.059-40.083-40.059c-22.136 0-40.059 17.923-40.059 40.059s17.923 40.059 40.059 40.059zM255.538 386.84c45.702 0 82.749 37.028 82.749 82.725s-37.048 82.725-82.749 82.725c-45.7 0-82.725-37.026-82.725-82.725s37.026-82.725 82.725-82.725zM255.538 509.624c22.143 0 40.083-17.93 40.083-40.059s-17.94-40.059-40.083-40.059c-22.136 0-40.059 17.923-40.059 40.059s17.923 40.059 40.059 40.059zM255.538 145.669c45.702 0 82.749 37.028 82.749 82.725s-37.048 82.725-82.749 82.725c-45.7 0-82.725-37.026-82.725-82.725s37.026-82.725 82.725-82.725zM255.538 268.453c22.143 0 40.083-17.93 40.083-40.059s-17.94-40.059-40.083-40.059c-22.136 0-40.059 17.923-40.059 40.059s17.923 40.059 40.059 40.059zM830.554 321.094c-82.004 0-148.471 66.461-148.471 148.471s66.468 148.471 148.471 148.471c82.004 0 148.471-66.461 148.471-148.471s-66.468-148.471-148.471-148.471zM830.554 660.703c-105.567 0-191.138-85.563-191.138-191.138s85.571-191.138 191.138-191.138c105.567 0 191.138 85.563 191.138 191.138s-85.571 191.138-191.138 191.138zM781.902 554.461c-12.089-12.691-18.019-29.72-18.019-50.826v-7.111h35.873v7.111c0 11.91 2.557 20.802 7.525 27.124 5.264 7.23 13.192 10.711 24.83 10.711 9.94 0 17.011-2.483 21.724-7.401 4.837-4.839 7.341-11.59 7.341-20.568 0-5.953-2.128-11.539-6.664-17.209-1.232-1.637-3.113-3.6-8.794-9.28-15.123-13.426-24.741-24.479-29.096-33.813-3.739-7.789-5.6-16.785-5.6-26.851v-13.415h36.147v13.415c0 6.26 1.367 11.564 4.218 16.389 2.476 4.452 6.124 8.747 11.407 13.309 11.891 10.539 19.826 18.107 23.014 21.932 8.066 10.634 12.063 22.859 12.063 36.618 0 18.267-5.917 33.101-17.647 43.879-11.982 11.061-27.62 16.4-47.017 16.4-21.639 0-38.915-6.787-51.305-20.416zM812.283 401.23c-4.511-4.126-6.742-9.805-6.742-16.539 0-6.63 2.163-12.234 6.742-16.813 4.894-4.496 10.461-6.742 16.813-6.742s11.919 2.246 16.59 6.528c4.813 4.412 7.239 10.174 7.239 17.027 0 6.454-2.33 12.127-6.742 16.539-4.563 4.563-10.407 6.742-17.087 6.742-6.63 0-12.234-2.163-16.813-6.742z" />
<glyph unicode="&#xe925;" glyph-name="Tender" d="M857.562 748.313l29.064 29.064c3.372 3.372 5.656 7.344 7.217 11.528l43.53-43.532c6.249-6.249 14.438-9.37 22.626-9.37s16.377 3.127 22.626 9.37c12.499 12.501 12.499 32.755 0 45.254l-128.004 127.998c-12.499 12.499-32.748 12.499-45.247 0s-12.499-32.749 0-45.248l43.53-43.53c-4.188-1.567-8.16-3.844-11.532-7.222l-31.153-31.153c-74.123 58.967-165.968 96.249-266.218 102.904v33.625c0 17.689-14.315 31.998-32.002 31.998-17.689 0-31.998-14.31-31.998-31.998v-33.625c-249.753-16.594-448.002-224.497-448.002-478.377 0-264.684 215.314-480 480-480 264.684 0 479.998 215.316 479.998 480 0 128.969-51.375 246.001-134.436 332.314v0zM512 0.002c-229.377 0-415.998 186.629-415.998 415.998 0 229.375 186.621 416.004 415.998 416.004 229.375 0 416.002-186.629 416.002-416.004 0-229.369-186.627-415.998-416.002-415.998v0zM544.002 506.095v229.908c0 17.687-14.315 31.998-32.002 31.998-17.689 0-31.998-14.311-31.998-31.998v-229.908c-37.159-13.25-64.002-48.437-64.002-90.095 0-52.936 43.064-96 96-96s95.999 43.064 95.999 96c0 41.659-26.843 76.845-63.996 90.095v0zM480.002 448.004h64v-64.002h-64v64.002z" />
<glyph unicode="&#xe926;" glyph-name="Turn-page" d="M423.842 755.2v-187.563l45.263-0.459c314.503-3.039 491.667-142.918 537.798-426.378-172.774 199.839-371.974 199.931-537.34 199.976h-45.72v-185.964l-423.842 300.217 423.842 300.171z" />
<glyph unicode="&#xe927;" glyph-name="user" d="M751.398 699.878c0-143.656-116.393-260.122-260.122-260.122-143.583 0-260.050 116.466-260.050 260.122s116.466 260.122 260.050 260.122c143.729 0 260.122-116.466 260.122-260.122zM33.032-59.515v63.758c0 199.49 161.686 361.176 361.176 361.176h206.76c199.563 0 361.249-161.686 361.249-361.176v-63.758z" />
<glyph unicode="&#xe928;" glyph-name="user2" d="M512 950.965c-283.106 0-512-222.871-512-499.953s228.894-499.953 512-499.953 512 222.871 512 499.953-228.894 499.953-512 499.953zM512 8.282c-249.976 0-451.765 198.776-451.765 439.718s201.788 439.718 451.765 439.718 451.765-198.776 451.765-439.718-201.788-439.718-451.765-439.718zM695.718 535.341c0 99.388-81.318 180.706-183.718 180.706s-183.718-81.318-183.718-180.706c0-99.388 81.318-180.706 183.718-180.706s183.718 81.318 183.718 180.706zM388.518 535.341c0 66.259 54.212 120.471 123.482 120.471 66.259 0 123.482-54.212 123.482-120.471s-54.212-120.471-123.482-120.471c-69.271 0-123.482 54.212-123.482 120.471zM512 327.529c-177.694 0-379.482-78.306-379.482-201.788h60.235c0 72.282 171.671 141.553 319.247 141.553s319.247-66.259 319.247-141.553h60.235c0 123.482-201.788 201.788-379.482 201.788z" />
<glyph unicode="&#xe929;" glyph-name="wallet" d="M964.542 35.179c0-36.478-29.576-66.065-66.065-66.065h-795.252c-36.489 0-66.065 29.586-66.065 66.065v821.595c0 36.504 29.56 66.065 66.065 66.065h795.252c36.504 0 66.065-29.56 66.065-66.065v-85.182c0-9.122 7.395-16.516 16.516-16.516s16.516 7.395 16.516 16.516v85.182c0 54.747-44.349 99.097-99.097 99.097h-795.252c-54.747 0-99.097-44.349-99.097-99.097v-821.595c0-54.719 44.362-99.097 99.097-99.097h795.252c54.734 0 99.097 44.378 99.097 99.097v80.268c0 9.122-7.395 16.516-16.516 16.516s-16.516-7.395-16.516-16.516v-80.268zM532.104 291.464c-89.887 0-162.766 72.868-162.766 162.725 0 89.893 72.874 162.766 162.766 162.766h400.681c17.536 0 31.752-14.225 31.752-31.752v-261.987c0-17.552-14.2-31.752-31.752-31.752h-400.681zM997.57 323.217v261.987c0 35.766-29.001 64.785-64.785 64.785h-400.681c-108.136 0-195.799-87.663-195.799-195.799 0-108.101 87.67-195.757 195.799-195.757h400.681c35.795 0 64.785 28.989 64.785 64.785zM528.809 406.516v0c-26.219 0-47.69 21.471-47.69 47.69v0c0 26.219 21.471 47.69 47.69 47.69v0c26.219 0 47.69-21.471 47.69-47.69v0c0-26.219-21.471-47.69-47.69-47.69z" />
<glyph unicode="&#xe92a;" glyph-name="man" d="M446.916 927.263c-17.92-5.547-36.693-12.8-56.036-21.049-17.493-7.538-34.418-15.644-50.204-23.609-5.547-2.844-10.524-5.404-14.791-7.68-2.56-1.564-4.551-2.56-5.547-3.129-8.96-4.978-21.476-16.498-33.707-36.693-23.751-38.969-35.84-95.289-30.009-171.662 0.569-8.249-1.138-15.644-5.262-21.476-22.898-32.569-26.311-72.96 5.973-115.484 23.893-31.716 43.093-48.498 58.453-54.044 5.973-2.133 10.667-6.542 13.369-12.516 10.951-25.173 24.889-46.649 42.667-60.587 0.142-7.253-0.569-15.502-2.418-24.604-3.556-16.356-10.382-32.427-21.618-47.644-23.040-31.573-62.151-55.609-121.031-68.978-53.191-11.804-95.431-28.587-127.858-48.924-24.889-15.644-42.667-32.569-54.471-49.636-7.396-10.524-11.236-19.342-12.516-24.747l-16.213-149.618h11.947l636.302-1.707 0.142 21.618-624.356 1.564 13.511 124.444c0.284 1.564 2.987 7.822 8.96 16.213 10.24 14.649 25.742 29.582 48.213 43.662 30.151 18.916 70.116 34.702 121.031 46.222 63.858 14.222 107.378 41.244 133.831 77.084 12.942 17.778 21.049 36.693 25.173 56.036 2.702 12.942 3.271 24.462 2.844 33.422-0.142 1.28-0.853 7.396-0.853 7.396l-3.982 2.844c-15.644 10.667-29.156 30.72-39.538 54.471-4.978 11.378-14.222 20.196-25.884 24.32-10.667 3.84-26.738 18.204-48.356 46.791-26.027 34.276-23.609 64.427-5.689 90.027 6.969 9.956 10.098 22.471 9.102 35.413-5.404 72.107 5.547 124.018 26.88 159.004 5.973 9.813 12.373 17.493 18.631 23.182 3.556 3.413 6.258 5.12 7.253 5.831 0.996 0.427 2.702 1.422 5.262 2.702 4.124 2.418 9.102 4.978 14.364 7.538 15.36 7.964 31.858 15.787 48.782 23.182 18.916 7.964 36.978 14.933 54.187 20.338 31.289 9.956 57.458 14.222 76.516 12.089 31.573-3.698 60.871-13.796 83.342-27.449 18.204-11.093 28.871-23.182 28.871-29.013v-9.244l9.102-1.422c1.991-0.284 5.262-0.853 9.813-1.849 7.396-1.564 14.649-3.413 21.476-5.689 14.222-4.836 23.467-10.524 25.458-15.218 1.991-5.262 13.938-22.613 15.36-25.031 18.489-31.431 21.333-76.231-1.138-156.871l-2.276-8.391 7.68-4.124c1.564-0.711 4.693-2.987 7.822-6.684 19.342-22.756 11.093-60.018-52.053-118.471l-1.849-2.133c-0.853-1.138-2.133-3.556-4.124-6.542-3.413-5.262-7.253-11.093-11.52-17.636-12.373-17.92-25.458-35.982-38.969-52.764-11.662-14.791-23.182-27.733-34.133-38.684l-3.271-3.271 0.142-4.836c0.569-15.644 6.258-37.973 21.76-60.444 9.813-14.080 22.329-26.169 37.973-35.84l11.236 18.489c-13.084 7.964-23.467 17.92-31.289 29.44-7.538 10.951-12.658 22.613-15.502 34.276-1.138 4.267-1.849 7.68-2.133 10.524 10.382 10.809 21.049 23.182 32.142 36.836 13.796 17.351 27.307 35.698 39.822 54.329 4.409 6.4 8.249 12.373 11.804 17.778 1.564 2.56 2.844 4.409 3.556 5.689 69.831 65.138 80.782 114.489 52.907 147.2-2.276 2.702-4.693 4.836-6.827 6.827 21.618 81.351 17.92 130.276-3.271 166.116-2.418 4.267-12.8 19.627-13.938 22.187-4.978 12.516-18.631 21.049-38.542 27.733-7.538 2.56-15.787 4.693-23.893 6.258-1.138 0.284-2.418 0.569-3.413 0.711-10.382 29.582-67.271 61.156-129.564 68.551-4.124 0.569-8.533 0.853-12.942 0.853-20.48 0-44.942-4.978-72.676-13.796v0zM942.276 172.732l-127.858-129.138c-5.689-5.689-15.076-5.689-20.622 0.142l-57.884 60.729c-5.404 5.689-5.262 14.791 0.569 20.196 5.689 5.547 14.791 5.262 20.196-0.427l47.644-49.92 117.476 118.613c5.689 5.689 14.791 5.689 20.338 0.142 5.689-5.547 5.689-14.649 0.142-20.338zM835.752 297.887c-96.996 0-175.644-78.933-175.644-176.213 0-97.422 78.649-176.213 175.644-176.213 97.138 0 175.787 78.791 175.787 176.213 0 97.28-78.649 176.213-175.787 176.213z" />
<glyph unicode="&#xe92b;" glyph-name="phone01" d="M512 960c-281.6 0-512-230.4-512-512s230.4-512 512-512 512 230.4 512 512-230.4 512-512 512zM548.978 624.356c5.689 17.067 19.911 14.222 31.289 11.378 39.822-14.222 68.267-36.978 91.022-79.644 17.067-28.444 22.756-65.422 11.378-102.4-2.844-8.533-5.689-25.6-22.756-22.756-19.911 2.844-17.067 22.756-17.067 31.289 8.533 65.422-14.222 108.089-79.644 133.689-11.378 5.689-19.911 14.222-14.222 28.444zM682.667 197.689c-17.067-25.6-36.978-31.289-36.978-31.289-39.822-14.222-91.022 2.844-133.689 34.133l-31.289 22.756c-59.733 42.667-139.378 156.444-139.378 156.444-56.889 73.956-159.289 258.844-59.733 321.422 51.2 31.289 82.489 11.378 108.089-39.822 25.6-45.511 45.511-76.8 2.844-110.933 0 0-51.2-31.289 39.822-153.6 85.333-102.4 125.156-71.111 125.156-71.111 34.133 34.133 71.111 2.844 110.933-34.133 34.133-28.444 45.511-59.733 14.222-93.867zM776.533 430.933c-2.844-17.067-8.533-31.289-28.444-25.6-17.067 5.689-17.067 19.911-14.222 34.133 22.756 113.778-34.133 213.333-145.067 253.156-14.222 5.689-28.444 11.378-22.756 31.289s22.756 14.222 36.978 11.378c62.578-22.756 113.778-59.733 145.067-119.467 34.133-59.733 42.667-122.311 28.444-184.889z" />
<glyph unicode="&#xe92c;" glyph-name="phone02" d="M921.518 723.615c56.348-100.616 72.142-207.238 47.868-320.090-5.943-27.605-16.848-52.847-49.906-44.014-29.788 7.95-27.396 33.568-22.326 59.741 38.727 199.815-60.070 372.29-251.986 440.644-25.898 9.22-51.153 19.201-40.548 53.041 11.028 35.148 38.948 26.639 63.869 18.19 110.073-37.282 195.452-105.21 253.030-207.513zM811.755 446.751c-4.337-16.249-8.412-45.849-41.594-40.908s-29.862 37.572-28.010 54.358c12.74 115.445-26.471 186.677-135.534 232.466-24.251 10.184-40.048 23.446-30.342 50.792 10.035 28.286 32.761 26.796 56.286 18.918 67.305-22.558 118.174-64.993 157.259-136.425 29.078-50.178 39.345-113.907 21.935-179.201zM783.319 170.732c-64.928 66.957-132.383 117.8-190.108 59.801 0 0-65.816-56.719-214.587 121.317-160.473 212.631-70.33 265.914-70.33 265.914 73.944 55.707 40.189 110.025-6.397 190.861-45.573 89.066-98.798 121.428-188.942 68.147-172.214-107.98 5.982-430.447 103.652-559.95 0 0 137.274-201.118 242.884-273.823l52.231-40.459c75.429-51.97 162.375-80.725 231.918-57.473 0 0 34.695 11.568 65.816 56.719 49.616 59.145 32.080 111.172-26.137 168.945z" />
<glyph unicode="&#xe92d;" glyph-name="return" d="M769.808 944.165c21.126-21.126 21.126-55.286 0-76.412l-416.729-416.723 422.769-422.774c21.131-21.126 21.131-55.286 0-76.412-21.126-21.126-55.287-21.126-76.414 0l-460.981 460.981c-21.126 21.126-21.126 55.286 0 76.412l454.929 454.928c10.536 10.531 24.364 15.835 38.212 15.835 13.834 0 27.664-5.291 38.213-15.835z" />
<glyph unicode="&#xe92e;" glyph-name="demand" horiz-adv-x="847" d="M108.836 926.502c-59.189 0-107.15-48.358-107.15-107.97v-769.369c0-59.612 47.961-107.97 107.15-107.97h546.472c59.189 0 107.15 48.358 107.15 107.97v526.53h-17.655v-526.53c0-49.894-40.089-90.315-89.494-90.315h-546.472c-49.405 0-89.494 40.421-89.494 90.315v769.369c0 49.894 40.089 90.315 89.494 90.315h430.9v17.655h-430.9zM548.557 771.748v145.926l-15.478-5.805 128.004-146.663c3.206-3.673 8.782-4.052 12.455-0.846s4.052 8.782 0.846 12.455l-128.004 146.663c-5.363 6.145-15.478 2.352-15.478-5.805v-145.926c0-44.591 27.088-84.112 67.531-100.35 4.524-1.817 9.665 0.379 11.481 4.903s-0.379 9.665-4.903 11.481c-33.792 13.568-56.454 46.631-56.454 83.967zM458.8 728.717v21.186h-325.637v-21.186zM336.455 574.234v21.186h-203.291v-21.186zM361.509 388.855v21.186h-228.345v-21.186zM539.747 203.476v21.186h-406.583v-21.186zM720.231 771.938l0.015-12.449 10.602 10.686c22.179 22.251 58.141 22.251 80.334-0.014 22.189-22.299 22.189-58.382-0.003-80.665l-10.638-10.659 12.5-0.004-92.811 93.105zM806.786 660.101l16.896 16.93c29.058 29.178 29.058 76.396 0.009 105.589-29.098 29.193-76.27 29.193-105.362 0.005l-16.8-16.933 105.257-105.591zM592.759 470.312h12.505l-92.853 93.168-0.001-12.464 185.663 186.252-12.506 0.002 92.811-93.168 0.001 12.461-185.621-186.252zM797.094 650.331l-105.27 105.676-198.129-198.758 105.316-105.674 198.083 198.756zM575.075 440.12l2.821 14.364-163.933-69.187 11.518-11.675 71.123 162.334-14.339-2.688 92.811-93.147zM485.63 554.904l-85.209-194.485 196.401 82.89-111.192 111.595z" />
<glyph unicode="&#xe92f;" glyph-name="location" horiz-adv-x="777" d="M29.992 558.368c0-63.603 34.454-149.223 96.302-251.993 25.124-41.748 54.328-85.533 86.805-130.688 39.82-55.366 82.467-109.953 125.114-161.4 14.927-18.007 28.79-34.338 41.234-48.696 7.476-8.626 12.826-14.685 15.694-17.881l6.57-7.321 6.57 7.321c2.868 3.196 8.217 9.255 15.694 17.881 12.445 14.358 26.307 30.689 41.234 48.696 42.647 51.447 85.295 106.035 125.114 161.4 32.477 45.156 61.68 88.941 86.805 130.688 61.848 102.77 96.302 188.39 96.302 251.993 0 205.334-166.399 371.719-371.719 371.719v-17.655c195.57 0 354.064-158.481 354.064-354.064 0-59.514-33.465-142.677-93.774-242.889-24.857-41.304-53.799-84.696-86.011-129.483-39.563-55.009-81.968-109.286-124.373-160.442-14.842-17.904-28.621-34.136-40.983-48.4-7.408-8.547-12.69-14.53-15.492-17.653h13.14c-2.802 3.122-8.084 9.106-15.492 17.653-12.362 14.263-26.142 30.496-40.983 48.4-42.406 51.156-84.811 105.433-124.373 160.442-32.212 44.788-61.153 88.18-86.011 129.483-60.309 100.212-93.774 183.375-93.774 242.889 0 195.59 158.48 354.064 354.064 354.064v17.655c-205.334 0-371.719-166.378-371.719-371.719zM170.518 560.282c0 128.745 104.32 233.065 233.065 233.065 128.781 0 233.107-104.314 233.107-233.065 0-128.732-104.349-233.107-233.107-233.107v-17.655c138.509 0 250.762 112.28 250.762 250.762 0 138.502-112.231 250.72-250.762 250.72-138.496 0-250.72-112.224-250.72-250.72 0-138.475 112.246-250.762 250.72-250.762v17.655c-128.722 0-233.065 104.381-233.065 233.107zM243.549 556.516c0-88.381 71.66-160.034 160.034-160.034 88.346 0 160.034 71.667 160.034 160.034 0 88.335-71.698 160.013-160.034 160.013v-17.655c78.586 0 142.379-63.774 142.379-142.358 0-78.615-63.782-142.379-142.379-142.379-78.624 0-142.379 63.749-142.379 142.379 0 78.598 63.766 142.358 142.379 142.358v17.655c-88.364 0-160.034-71.664-160.034-160.013z" />
<glyph unicode="&#xe930;" glyph-name="budget" d="M207.757-43.964c-43.079 0-78.006 34.928-78.006 78.006v827.915c0 43.079 34.928 78.006 78.006 78.006h610.043c43.079 0 78.006-34.928 78.006-78.006v-827.915c0-43.079-34.928-78.006-78.006-78.006h-610.043zM914.091 34.043v827.915c0 53.177-43.114 96.292-96.292 96.292h-610.043c-53.177 0-96.292-43.114-96.292-96.292v-827.915c0-53.177 43.114-96.292 96.292-96.292h610.043c53.177 0 96.292 43.114 96.292 96.292zM210.675 112.444c0 33.299 27 60.293 60.315 60.293h251.708c33.301 0 60.315-27.002 60.315-60.293v-19.848c0-33.296-27.019-60.315-60.315-60.315h-251.708c-33.31 0-60.315 27.011-60.315 60.315v19.848zM270.99 13.995h251.708c43.395 0 78.601 35.206 78.601 78.601v19.848c0 43.392-35.202 78.579-78.601 78.579h-251.708c-43.413 0-78.601-35.18-78.601-78.579v-19.848c0-43.402 35.191-78.601 78.601-78.601zM245.115 696.802c-19.025 0-34.432 15.406-34.432 34.432v87.149c0 19.025 15.406 34.432 34.432 34.432h535.334c19.025 0 34.432-15.406 34.432-34.432v-87.149c0-19.025-15.406-34.432-34.432-34.432h-535.334zM833.167 731.234v87.149c0 29.124-23.593 52.717-52.717 52.717h-535.334c-29.124 0-52.717-23.593-52.717-52.717v-87.149c0-29.124 23.593-52.717 52.717-52.717h535.334c29.124 0 52.717 23.593 52.717 52.717zM280.897 457.141c-38.786 0-70.228 31.442-70.228 70.228s31.442 70.228 70.228 70.228c38.786 0 70.228-31.442 70.228-70.228s-31.442-70.228-70.228-70.228zM280.897 615.882c-48.885 0-88.514-39.628-88.514-88.514s39.628-88.514 88.514-88.514c48.885 0 88.514 39.628 88.514 88.514s-39.628 88.514-88.514 88.514zM280.897 244.715c-38.786 0-70.228 31.442-70.228 70.228s31.442 70.228 70.228 70.228c38.786 0 70.228-31.442 70.228-70.228s-31.442-70.228-70.228-70.228zM280.897 403.457c-48.885 0-88.514-39.628-88.514-88.514s39.628-88.514 88.514-88.514c48.885 0 88.514 39.628 88.514 88.514s-39.628 88.514-88.514 88.514zM512.776 457.141c-38.786 0-70.228 31.442-70.228 70.228s31.442 70.228 70.228 70.228c38.786 0 70.228-31.442 70.228-70.228s-31.442-70.228-70.228-70.228zM512.776 615.882c-48.885 0-88.514-39.628-88.514-88.514s39.628-88.514 88.514-88.514c48.885 0 88.514 39.628 88.514 88.514s-39.628 88.514-88.514 88.514zM512.776 244.715c-38.786 0-70.228 31.442-70.228 70.228s31.442 70.228 70.228 70.228c38.786 0 70.228-31.442 70.228-70.228s-31.442-70.228-70.228-70.228zM512.776 403.457c-48.885 0-88.514-39.628-88.514-88.514s39.628-88.514 88.514-88.514c48.885 0 88.514 39.628 88.514 88.514s-39.628 88.514-88.514 88.514zM744.653 457.141c-38.786 0-70.228 31.442-70.228 70.228s31.442 70.228 70.228 70.228c38.786 0 70.228-31.442 70.228-70.228s-31.442-70.228-70.228-70.228zM744.653 615.882c-48.885 0-88.514-39.628-88.514-88.514s39.628-88.514 88.514-88.514c48.885 0 88.514 39.628 88.514 88.514s-39.628 88.514-88.514 88.514zM734.729 32.292c-33.299 0-60.293 27-60.293 60.315v232.252c0 33.315 26.994 60.315 60.293 60.315h19.848c33.304 0 60.315-27.005 60.315-60.315v-232.252c0-33.31-27.011-60.315-60.315-60.315h-19.848zM833.178 92.607v232.252c0 43.41-35.198 78.601-78.601 78.601h-19.848c-43.399 0-78.579-35.188-78.579-78.601v-232.252c0-43.413 35.18-78.601 78.579-78.601h19.848c43.402 0 78.601 35.191 78.601 78.601z" />
<glyph unicode="&#xe931;" glyph-name="card" d="M31.030 149.113c0-16.963 13.838-30.844 30.752-30.844h876.151c16.904 0 30.752 13.85 30.752 30.844v609.377c0 16.963-13.838 30.844-30.752 30.844h-876.151c-16.904 0-30.752-13.85-30.752-30.844v-609.377zM61.782 820.364h876.151c34.121 0 61.782-27.844 61.782-61.874v-609.377c0-34.172-27.782-61.874-61.782-61.874h-876.151c-34.121 0-61.782 27.844-61.782 61.874v609.377c0 34.172 27.782 61.874 61.782 61.874zM981.863 603.152h15.515v31.030h-995.042v-31.030h15.515zM916.406 323.879c8.569 0 15.515 6.946 15.515 15.515s-6.946 15.515-15.515 15.515h-268.436c-8.569 0-15.515-6.946-15.515-15.515s6.946-15.515 15.515-15.515h268.436z" />
<glyph unicode="&#xe932;" glyph-name="pause" d="M512-44.279c-271.888 0-492.279 220.391-492.279 492.279s220.391 492.279 492.279 492.279c271.888 0 492.279-220.391 492.279-492.279s-220.391-492.279-492.279-492.279zM512 957.934c-281.639 0-509.934-228.295-509.934-509.934s228.295-509.934 509.934-509.934c281.639 0 509.934 228.295 509.934 509.934s-228.295 509.934-509.934 509.934zM353.103 209.655c0-4.875 3.952-8.828 8.828-8.828s8.828 3.952 8.828 8.828v494.345c0 4.875-3.952 8.828-8.828 8.828s-8.828-3.952-8.828-8.828v-494.345zM670.897 209.655c0-4.875 3.952-8.828 8.828-8.828s8.828 3.952 8.828 8.828v494.345c0 4.875-3.952 8.828-8.828 8.828s-8.828-3.952-8.828-8.828v-494.345z" />
<glyph unicode="&#xe933;" glyph-name="phone" d="M349.519 917.333h336.335c65.828 0 119.119-53.153 119.119-118.87v-700.927c0-65.6-53.402-118.87-119.119-118.87h-336.335c-65.828 0-119.119 53.153-119.119 118.87v700.927c0 65.613 53.395 118.87 119.119 118.87zM213.333 97.537c0-75.152 60.942-135.937 136.186-135.937h336.335c75.133 0 136.186 60.902 136.186 135.937v700.927c0 75.152-60.942 135.937-136.186 135.937h-336.335c-75.14 0-136.186-60.888-136.186-135.937v-700.927zM813.507 200.533v17.067h-591.64v-17.067zM813.507 814.933v17.067h-591.64v-17.067zM537.631 874.682c0 14.126-11.488 25.584-25.616 25.584s-25.616-11.459-25.616-25.584c0-14.15 11.48-25.616 25.616-25.616s25.616 11.466 25.616 25.616zM503.467 874.682c0 4.69 3.837 8.518 8.549 8.518s8.549-3.827 8.549-8.518c0-4.719-3.835-8.549-8.549-8.549s-8.549 3.83-8.549 8.549zM570.724 90.826c0 29.856-24.185 54.055-54.035 54.055s-54.035-24.2-54.035-54.055c0-29.839 24.188-54.035 54.035-54.035s54.035 24.196 54.035 54.035zM479.722 90.826c0 20.432 16.546 36.989 36.968 36.989s36.968-16.556 36.968-36.989c0-20.414-16.549-36.968-36.968-36.968s-36.968 16.554-36.968 36.968zM278.644 608.83l11.106-12.959 159.296 136.524-11.106 12.959zM278.685 474.294l11.024-13.028 295.82 250.319-11.024 13.028z" />
<glyph unicode="&#xe934;" glyph-name="play" d="M512-44.279c-271.888 0-492.279 220.391-492.279 492.279s220.391 492.279 492.279 492.279c271.888 0 492.279-220.391 492.279-492.279s-220.391-492.279-492.279-492.279zM512 957.934c-281.639 0-509.934-228.295-509.934-509.934s228.295-509.934 509.934-509.934c281.639 0 509.934 228.295 509.934 509.934s-228.295 509.934-509.934 509.934zM387.916 198.809l14.104-7.077v510.998l-14.104-7.077 342.735-255.499v14.155l-342.735-255.499zM741.203 454.308l-342.735 255.499c-5.823 4.341-14.104 0.185-14.104-7.077v-510.998c0-7.263 8.281-11.418 14.104-7.077l342.735 255.499c4.735 3.53 4.735 10.625 0 14.155z" />
<glyph unicode="&#xe935;" glyph-name="use" d="M513.846 461.188c-131.636 0-238.408 106.79-238.408 238.471s106.772 238.471 238.408 238.471c131.745 0 238.471-106.751 238.471-238.471h17.655c0 141.469-114.63 256.126-256.126 256.126-141.388 0-256.063-114.696-256.063-256.126s114.675-256.126 256.063-256.126c141.496 0 256.126 114.657 256.126 256.126h-17.655c0-131.72-106.726-238.471-238.471-238.471zM964.397 39.928c0 194.532-157.679 352.197-352.261 352.197h-196.581c-194.528 0-352.197-157.676-352.197-352.197v-69.453h901.039v69.453zM955.57-11.871h-883.384l8.828-8.828v60.626c0 184.771 149.765 334.542 334.542 334.542h196.581c184.831 0 334.605-149.762 334.605-334.542v-60.626l8.828 8.828z" />
<glyph unicode="&#xe936;" glyph-name="Triangle-2" horiz-adv-x="1536" d="M768 851.606l704-802.863h-1408z" />
<glyph unicode="&#xe937;" glyph-name="rmb" d="M511.341 960c-282.35 0-511.289-229.222-511.341-511.974 0-282.852 228.939-512.026 511.341-512.026 282.452 0 511.392 229.222 511.392 512.026 0 282.751-228.888 511.974-511.392 511.974zM737.487 454.692c1.728-8.19 2.592-17.503 2.592-27.984 0-12.824-0.865-23.61-2.592-32.361h-167.55v-76.934h167.55c1.728-8.142 2.592-17.454 2.592-27.936 0-12.874-0.865-23.61-2.592-32.361h-167.55v-137.178c-7.065-1.119-14.28-2.036-21.852-2.646s-15.194-0.915-22.716-0.915c-7.57 0-15.093 0.305-22.664 0.915-7.521 0.611-14.839 1.475-21.852 2.646v137.178h-160.588c-2.339 7.023-3.506 16.892-3.506 29.715 0 5.293 0.304 10.483 0.865 15.774 0.61 5.242 1.473 10.177 2.643 14.808h160.588v76.934h-160.588c-2.339 7.023-3.506 16.892-3.506 29.715 0 5.241 0.304 10.481 0.865 15.774 0.61 5.241 1.473 10.175 2.643 14.858h125.676l-160.588 283.107c7.572 1.169 15.856 2.036 24.851 2.594 9.095 0.61 17.685 0.916 25.817 0.916 8.131 0 16.566-0.305 25.307-0.866 8.743-0.56 16.566-1.425 23.581-2.594l143.106-263.925 140.565 263.925c7.522 1.169 15.245 2.036 23.121 2.594 7.776 0.558 15.856 0.866 23.988 0.866s16.262-0.305 24.392-0.866c8.181-0.558 15.754-1.425 22.715-2.594l-157.946-283.107 132.635-0.052z" />
<glyph unicode="&#xe938;" glyph-name="aircraft" horiz-adv-x="1114" d="M899.119 70.23c17.399-6.146 36.183 4.657 39.621 22.786l157.665 831.265c4.649 24.513-20.814 43.724-43.109 32.525l-1036.69-520.754c-23.723-11.917-21.544-46.469 3.488-55.311l310.546-109.691c15.684-5.54 32.889 2.684 38.429 18.367s-2.684 32.889-18.367 38.429l-310.546 109.691 3.488-55.311 1036.69 520.754-43.109 32.525-157.665-831.265 39.621 22.786-310.439 109.655c-15.684 5.54-32.889-2.683-38.429-18.367s2.683-32.889 18.367-38.429l310.439-109.655zM478.746 317.928c-28.704-32.362-44.57-74.134-44.57-117.366v-226.163c0-16.634 13.484-30.118 30.118-30.118s30.118 13.484 30.118 30.118v226.163c0 28.497 10.465 56.050 29.394 77.391l560.764 631.939c11.040 12.441 9.904 31.477-2.537 42.517s-31.477 9.904-42.517-2.537l-560.768-631.944z" />
<glyph unicode="&#xe939;" glyph-name="arrow" horiz-adv-x="873" d="M448.118 950.34c-11.919 12.86-32.26 12.86-44.179 0l-395.915-427.179c-11.307-12.2-10.583-31.255 1.617-42.562s31.255-10.583 42.562 1.617l395.915 427.179h-44.179l395.915-427.179c11.307-12.2 30.362-12.923 42.562-1.617s12.923 30.362 1.617 42.562l-395.915 427.179zM395.915-6.049c0-16.634 13.484-30.118 30.118-30.118s30.118 13.484 30.118 30.118v935.931c0 16.634-13.484 30.118-30.118 30.118s-30.118-13.484-30.118-30.118v-935.931z" />
<glyph unicode="&#xe93a;" glyph-name="cancellation" horiz-adv-x="994" d="M21.408 464.681c-12.86-11.919-12.86-32.26 0-44.179l260.475-241.411c12.2-11.307 31.255-10.583 42.562 1.617s10.583 31.255-1.617 42.562l-260.475 241.411v-44.179l260.475 241.411c12.2 11.307 12.923 30.362 1.617 42.562s-30.362 12.923-42.562 1.617l-260.475-241.411zM612.561 417.882c16.634 0 30.118 13.484 30.118 30.118s-13.484 30.118-30.118 30.118h-570.69c-16.634 0-30.118-13.484-30.118-30.118s13.484-30.118 30.118-30.118h570.69zM888.096-52.247c42.608 0 77.131 34.522 77.131 77.131v846.232c0 42.608-34.522 77.131-77.131 77.131h-548.476c-16.634 0-30.118-13.484-30.118-30.118s13.484-30.118 30.118-30.118h548.476c9.341 0 16.895-7.554 16.895-16.895v-846.232c0-9.341-7.554-16.895-16.895-16.895h-548.476c-16.634 0-30.118-13.484-30.118-30.118s13.484-30.118 30.118-30.118h548.476z" />
<glyph unicode="&#xe93b;" glyph-name="checkmark02" d="M10.619 448c0-276.942 224.46-501.381 501.381-501.381s501.381 224.439 501.381 501.381c0 18.851-15.282 34.133-34.133 34.133s-34.133-15.282-34.133-34.133c0-239.238-193.895-433.114-433.114-433.114s-433.114 193.876-433.114 433.114c0 239.156 193.94 433.114 433.114 433.114 18.851 0 34.133 15.282 34.133 34.133s-15.282 34.133-34.133 34.133c-276.878 0-501.381-224.524-501.381-501.381zM434.99 262.036c13.282-13.055 34.577-13.053 47.857 0.003l310.125 304.9c13.443 13.216 13.626 34.827 0.41 48.27s-34.827 13.626-48.27 0.41l-310.125-304.9 47.857 0.003-156.379 153.703c-13.444 13.214-35.056 13.028-48.27-0.417s-13.028-35.056 0.417-48.27l156.379-153.703z" />
<glyph unicode="&#xe93c;" glyph-name="data02" horiz-adv-x="1090" d="M554.942 365.419c-6.606 0-9.91 0-16.516 3.303l-498.787 251.045c-13.213 6.606-19.819 19.819-19.819 33.032s6.606 26.426 19.819 33.032l498.787 251.045c9.91 6.606 23.123 6.606 33.032 0l498.787-251.045c13.213-6.606 19.819-19.819 19.819-33.032s-6.606-26.426-19.819-33.032c0 0 0 0 0 0l-498.787-251.045c-3.303 0-9.91-3.303-16.516-3.303zM102.4 652.8l452.542-227.923 452.542 227.923-452.542 227.923-452.542-227.923zM554.942 154.013c-6.606 0-9.91 0-16.516 3.303l-498.787 251.045c-13.213 6.606-19.819 19.819-19.819 33.032s6.606 26.426 19.819 33.032l102.4 52.852c13.213 6.606 29.729 0 36.335-13.213s0-29.729-13.213-36.335l-66.065-33.032 452.542-227.923 452.542 227.923-72.671 36.335c-13.213 6.606-19.819 23.123-13.213 36.335s23.123 19.819 36.335 13.213l109.006-56.155c13.213-6.606 19.819-19.819 19.819-33.032s-6.606-26.426-19.819-33.032l-498.787-251.045c3.303-3.303-3.303-3.303-9.91-3.303zM554.942-50.787c-6.606 0-9.91 0-16.516 3.303l-498.787 251.045c-13.213 6.606-19.819 19.819-19.819 33.032s6.606 26.426 19.819 33.032l102.4 52.852c13.213 6.606 29.729 0 36.335-13.213s0-29.729-13.213-36.335l-66.065-33.032 452.542-227.923 452.542 227.923-72.671 36.335c-13.213 6.606-19.819 23.123-13.213 36.335s23.123 19.819 36.335 13.213l109.006-56.155c13.213-6.606 19.819-19.819 19.819-33.032s-6.606-26.426-19.819-33.032l-498.787-251.045c3.303-3.303-3.303-3.303-9.91-3.303z" />
<glyph unicode="&#xe93d;" glyph-name="location5" horiz-adv-x="813" d="M16.34 557.201c1.051-66.6 21.483-133.13 57.977-192.958 75.241-123.353 141.808-211.307 293.048-394.53 18.36-22.198 52.453-22.834 71.276-0.786 7.119 8.345 53.095 60.378 68.065 77.651 35.644 41.129 67.080 79.158 97.079 118.171 53.404 69.451 96.941 135.347 128.881 198.016 37.539 73.655 57.912 140.722 57.912 200.725 0 212.828-173.366 385.299-387.144 385.299-216.14 0-390.561-176.139-387.095-391.588zM730.343 563.49c0-49.029-17.748-107.456-51.344-173.373-30.039-58.938-71.636-121.899-122.964-188.651-29.197-37.97-59.915-75.132-94.848-115.439-14.646-16.899-60.838-69.177-68.364-77.999 5.683 6.657 15.669 6.47 20.977 0.052-149.518 181.137-214.699 267.259-288.059 387.53-31.065 50.926-48.297 107.040-49.173 162.551-2.924 181.731 144.288 330.393 326.867 330.393 180.58 0 326.908-145.572 326.908-325.063zM314.364 562.67c0 47.769 38.975 86.543 87.149 86.543s87.149-38.774 87.149-86.543c0-47.769-38.975-86.543-87.149-86.543s-87.149 38.774-87.149 86.543zM548.897 562.67c0 81.106-66.013 146.778-147.384 146.778s-147.384-65.672-147.384-146.778c0-81.106 66.013-146.778 147.384-146.778s147.384 65.672 147.384 146.778z" />
<glyph unicode="&#xe93e;" glyph-name="lock" horiz-adv-x="866" d="M433.231 889.108c157.538 0 283.569-129.969 283.569-287.508 0-19.692 15.754-31.508 31.508-31.508s31.508 15.754 31.508 31.508c0 196.923-153.6 354.462-346.585 354.462s-346.585-157.538-346.585-354.462c0-19.692 15.754-31.508 31.508-31.508s31.508 15.754 31.508 31.508c0 157.538 126.031 287.508 283.569 287.508zM401.723 329.846v-118.154c0-43.323 66.954-43.323 66.954 0v118.154c-3.938 43.323-66.954 43.323-66.954 0zM827.077-56.123c19.692 0 31.508 15.754 31.508 31.508v590.769c0 19.692-15.754 31.508-31.508 31.508h-787.692c-19.692 0-31.508-15.754-31.508-31.508v-590.769c0-19.692 15.754-31.508 31.508-31.508h787.692zM70.892-24.615v590.769l-31.508-31.508h787.692l-31.508 31.508v-590.769l31.508 31.508h-787.692l31.508-31.508z" />
<glyph unicode="&#xe93f;" glyph-name="message02" horiz-adv-x="1190" d="M289.914 474.493c-43.714 0-79.149-35.436-79.149-79.149s35.436-79.149 79.149-79.149c43.714 0 79.149 35.436 79.149 79.149s-35.436 79.149-79.149 79.149zM517.897 474.493c-43.714 0-79.149-35.436-79.149-79.149s35.436-79.149 79.149-79.149c43.714 0 79.149 35.436 79.149 79.149s-35.436 79.149-79.149 79.149zM745.879 474.493c-43.714 0-79.149-35.436-79.149-79.149s35.436-79.149 79.149-79.149c43.714 0 79.149 35.436 79.149 79.149s-35.436 79.149-79.149 79.149zM11.257 395.344c0-108.788 44.667-211.384 124.115-291.598-2.798 2.826-3.85 7.129-2.59 11.056-12.233-38.192-36.877-75.272-77.174-97.811-9.897-5.534-17.361-15.384-15.302-29.885 1.612-11.346 7.737-17.662 15.651-22.126 5.685-3.207 12.536-5.175 21.114-6.666 15.055-2.617 35.305-3.516 56.563-2.262 56.738 3.347 110.869 20.298 150.799 53.479-4.063-3.364-10.077-4.168-15.195-1.644 75.304-37.311 160.389-57.211 248.657-57.211 279.024 0 506.639 198.169 506.639 444.668s-227.615 444.668-506.639 444.668c-279.024 0-506.639-198.169-506.639-444.668zM969.183 395.344c0-214.093-201.26-389.316-451.287-389.316-79.748 0-156.423 17.932-224.131 51.48-14.819 7.307-32.153 4.989-44.669-5.374-29.606-24.603-72.759-38.115-118.721-40.827-17.198-1.015-33.219-0.304-43.824 1.54-2.846 0.495-4.521 0.976-3.396 0.341 5.647-3.185 10.521-8.211 11.954-18.299 1.877-13.216-4.649-21.828-12.483-26.208 54.591 30.534 86.758 78.935 102.867 129.226 5.072 15.812 0.868 33.010-10.788 44.785-69.457 70.127-108.096 158.877-108.096 252.653 0 214.093 201.26 389.316 451.287 389.316s451.287-175.224 451.287-389.316zM1054.115 223.52c1.258-3.921 0.198-8.253-2.64-11.105 79.477 80.294 124.136 182.886 124.136 291.642 0 246.51-227.602 444.668-506.616 444.668-155.007 0-298.727-61.516-394.408-165.596l-93.073-101.244 124.991 57.36c64.649 29.668 136.679 45.415 211.381 45.415 250.027 0 451.287-175.224 451.287-389.316 0-88.66-34.569-172.867-97.331-241.27l-93.268-101.651 125.258 57.811c1.968 0.899 1.968 0.899 4.123 1.865 4.852 2.172 7.011 3.165 9.783 4.544-5.205-2.579-11.252-1.77-15.321 1.617 39.963-33.188 94.093-50.135 150.826-53.486 21.258-1.256 41.506-0.359 56.562 2.255 8.575 1.489 15.426 3.455 21.11 6.658 7.908 4.456 14.030 10.756 15.659 22.085 2.086 14.508-5.376 24.381-15.281 29.926-40.311 22.547-64.961 59.642-77.178 97.821zM1091.786 103.65c1.448 10.072 6.317 15.083 11.956 18.26 1.12 0.631-0.558 0.15-3.407-0.345-10.608-1.842-26.629-2.551-43.828-1.535-45.963 2.715-89.122 16.226-118.702 40.792-12.486 10.394-29.898 12.722-44.677 5.401-1.918-0.954-3.617-1.736-7.528-3.486-2.528-1.132-2.528-1.132-4.963-2.245l11.598-25.128 20.392-18.711c71.898 78.36 111.897 175.796 111.897 278.692 0 246.498-227.615 444.668-506.639 444.668-82.673 0-162.578-17.468-234.468-50.459l31.918-43.884c85.070 92.538 213.958 147.705 353.659 147.705 250.017 0 451.265-175.212 451.265-389.316 0-93.748-38.635-182.5-108.074-252.653-11.648-11.708-15.864-28.935-10.784-44.772 16.089-50.278 48.266-98.7 102.86-129.236-7.852 4.396-14.378 13.030-12.477 26.253z" />
<glyph unicode="&#xe940;" glyph-name="phone03" horiz-adv-x="943" d="M544.911 282.797c-6.914-1.758-20.233-1.568-40.492 7.096-33.39 14.279-74.476 48.027-123.009 106.115-47.7 63.252-73.745 114.669-81.72 154.040-5.227 25.803-2.241 42.541 4.848 53.128 2.073 3.096 3.558 4.42 3.272 4.251l2.505 1.676c3.959 2.983 7.679 5.998 11.165 9.050 34.28 30.017 46.227 64.306 37.966 103.793-5.696 27.23-14.389 44.506-48.069 102.96-52.234 102.128-120.817 130.59-216.058 74.299-154.959-97.161-73.301-352.8 90.397-569.903 0.854-1.304 3.823-5.583 8.026-11.529 6.965-9.854 14.88-20.82 23.605-32.622 24.936-33.734 51.408-67.476 78.322-99.047 22.205-26.047 43.784-49.503 64.46-69.754 21.967-21.516 42.638-39.146 61.934-52.428l48.25-37.438c84.905-58.543 173.547-82.511 244.767-58.691 18.058 6.014 42.66 21.657 66.408 51.136 3.292 4.087 6.486 8.368 9.572 12.848 52.991 62.989 40.423 126.614-27.96 194.482l-37.965-38.253c50.474-50.094 57.010-83.181 23.088-123.623-3.866-5.399-6.255-8.601-8.705-11.643-9.909-12.301-20.343-21.462-30.578-27.97-5.645-3.589-9.557-5.4-10.922-5.854-52.359-17.512-124.81 2.078-195.912 51.061l-48.259 37.444c-17.673 12.217-36.083 27.919-56.006 47.432-19.419 19.020-39.933 41.318-61.158 66.215-26.025 30.528-51.75 63.319-75.997 96.119-8.489 11.484-16.182 22.142-22.934 31.694-4.027 5.698-6.829 9.736-8.263 11.836-145.703 193.287-218.718 421.866-106.143 492.459 65.275 38.569 100.876 23.794 140.694-54.001 52.504-91.19 56.485-110.222 21.935-140.475-2.473-2.165-5.168-4.35-8.093-6.553l2.505 1.676c-6.262-3.701-13.741-10.371-20.631-20.66-35.8-53.461-17.944-141.609 79.466-270.667 98.257-117.65 174.346-150.19 228.029-127.621 6.355 2.672 11.121 5.715 14.354 8.503 33.644 33.687 73.98 16.364 143.163-55.001l38.696 37.513c-88.199 90.982-155.754 119.994-218.553 56.909zM709.327 466.745c0-11.45-0.677-22.764-2.024-33.946-1.78-14.776 8.756-28.197 23.531-29.977s28.197 8.756 29.977 23.531c1.605 13.324 2.411 26.79 2.411 40.392 0 135.554-81.982 255.934-205.116 306.921-13.75 5.694-29.513-0.837-35.207-14.588s0.837-29.513 14.588-35.207c103.161-42.717 171.84-143.562 171.84-257.126zM879.714 466.737c0-22.799-1.696-45.379-5.049-67.667-2.215-14.717 7.921-28.443 22.638-30.657s28.443 7.921 30.657 22.638c3.752 24.938 5.649 50.199 5.649 75.687 0 219.464-141.959 411.527-347.511 478.094-14.159 4.585-29.354-3.176-33.939-17.334s3.176-29.354 17.334-33.939c183.478-59.419 310.221-230.894 310.221-426.821z" />
<glyph unicode="&#xe941;" glyph-name="phone04" d="M1017.263 448c0 279.049-226.214 505.263-505.263 505.263s-505.263-226.214-505.263-505.263c0-279.049 226.214-505.263 505.263-505.263s505.263 226.214 505.263 505.263zM47.158 448c0 256.725 208.117 464.842 464.842 464.842s464.842-208.117 464.842-464.842c0-256.725-208.117-464.842-464.842-464.842s-464.842 208.117-464.842 464.842zM564.624 360.17c2.003 1.742 2.398 1.986 2.323 1.955-3.767-1.528-10.311-1.438-20.957 2.954-18.493 7.631-41.576 25.927-69.060 57.666-47.049 60.189-54.072 93.641-43.92 108.269 4.533 3.82 6.767 5.566 8.865 7.339 38.945 32.905 33.54 57.835-4.73 121.925-31.152 58.784-73.273 75.651-130.424 43.058-93.553-56.599-45.534-201.653 50.628-324.712 0.36-0.548 2.086-2.949 4.523-6.276 4.032-5.503 8.611-11.625 13.658-18.213 14.425-18.83 29.74-37.666 45.323-55.303 12.878-14.577 25.404-27.714 37.427-39.077 12.834-12.129 24.94-22.092 36.299-29.637l27.566-20.648c50.109-33.347 102.378-46.984 144.811-33.289 11.152 3.584 26.059 12.73 40.381 29.884 1.979 2.37 3.897 4.852 5.751 7.448 32.404 37.137 24.489 75.803-16.721 115.267l-27.957-29.194c27.224-26.070 30.307-41.133 12.976-61.070-2.455-3.28-3.75-4.956-5.078-6.546-8.984-10.76-17.381-15.913-21.743-17.314-28.723-9.27-69.205 1.292-109.131 27.832l-27.573 20.652c-10.139 6.772-20.534 15.327-31.819 25.992-11.063 10.455-22.772 22.736-34.899 36.462-14.897 16.862-29.636 34.989-43.527 53.122-4.864 6.349-9.271 12.241-13.137 17.518-2.301 3.141-3.898 5.361-4.707 6.505-82.126 105.135-123.161 229.091-62.578 265.749 35.165 20.047 53.029 12.893 74.743-28.042 29.063-48.721 30.83-56.87 13.85-71.217-1.333-1.126-2.793-2.268-4.385-3.425-2.313-1.177-7.165-5.353-11.6-11.744-22.278-32.101-11.461-83.628 45.93-156.997 57.907-66.912 103.523-85.735 136.409-72.395 4.106 1.665 7.254 3.605 9.475 5.453 17.15 16.543 38.296 7.78 76.515-30.262l28.515 28.649c-52.395 52.151-93.368 69.13-132.022 31.662zM657.664 458.414c0-6.123-0.375-12.17-1.121-18.146-1.383-11.076 6.475-21.176 17.551-22.558s21.176 6.475 22.558 17.551c0.954 7.639 1.432 15.358 1.432 23.153 0 77.625-48.546 146.407-121.229 175.448-10.365 4.141-22.125-0.904-26.267-11.269s0.904-22.125 11.269-26.267c57.607-23.017 95.806-77.138 95.806-137.912zM755.765 458.409c0-12.368-0.953-24.616-2.839-36.706-1.72-11.029 5.826-21.363 16.855-23.083s21.363 5.826 23.083 16.855c2.206 14.146 3.321 28.477 3.321 42.935 0 124.392-83.248 233.070-203.529 270.656-10.654 3.329-21.989-2.609-25.319-13.263s2.609-21.989 13.263-25.319c103.705-32.406 175.164-125.694 175.164-232.074z" />
<glyph unicode="&#xe942;" glyph-name="phone05" horiz-adv-x="725" d="M629.333 899.556c21.333 0 35.556-14.222 35.556-32v-835.556c0-17.778-17.778-35.556-35.556-35.556h-529.778c-21.333 0-35.556 14.222-35.556 35.556v835.556c0 17.778 17.778 32 35.556 32h529.778zM0 864v-835.556c0-53.333 42.667-92.444 96-92.444h529.778c53.333 0 96 42.667 96 92.444v835.556c0 53.333-42.667 92.444-96 92.444h-529.778c-53.333 3.556-96-39.111-96-92.444zM664.889 206.222c17.778 0 28.444 14.222 28.444 32s-14.222 32-28.444 32h-625.778c-17.778 0-28.444-14.222-28.444-32s14.222-32 28.444-32h625.778zM416 85.333c0-24.889-17.778-42.667-42.667-42.667s-42.667 17.778-42.667 42.667c0 24.889 17.778 42.667 42.667 42.667s42.667-17.778 42.667-42.667z" />
<glyph unicode="&#xe943;" glyph-name="upgrade" d="M1024 448c0 283.106-228.894 512-512 512s-512-228.894-512-512c0-283.106 228.894-512 512-512s512 228.894 512 512zM60.235 448c0 249.976 201.788 451.765 451.765 451.765s451.765-201.788 451.765-451.765-201.788-451.765-451.765-451.765-451.765 201.788-451.765 451.765zM530.071 740.141c-9.035 12.047-27.106 12.047-36.141 0l-240.941-259.012c-9.035-9.035-9.035-27.106 0-36.141s27.106-9.035 36.141 0l240.941 259.012h-36.141l240.941-259.012c9.035-9.035 27.106-12.047 36.141 0 9.035 9.035 12.047 27.106 0 36.141l-240.941 259.012zM484.894 170.918c0-15.059 12.047-27.106 27.106-27.106s27.106 12.047 27.106 27.106v521.035c0 15.059-12.047 27.106-27.106 27.106s-27.106-12.047-27.106-27.106v-521.035z" />
<glyph unicode="&#xe944;" glyph-name="user22" d="M512 950.965c-283.106 0-512-222.871-512-499.953s228.894-499.953 512-499.953 512 222.871 512 499.953-228.894 499.953-512 499.953zM512 8.282c-249.976 0-451.765 198.776-451.765 439.718s201.788 439.718 451.765 439.718 451.765-198.776 451.765-439.718-201.788-439.718-451.765-439.718zM695.718 535.341c0 99.388-81.318 180.706-183.718 180.706s-183.718-81.318-183.718-180.706c0-99.388 81.318-180.706 183.718-180.706s183.718 81.318 183.718 180.706zM388.518 535.341c0 66.259 54.212 120.471 123.482 120.471 66.259 0 123.482-54.212 123.482-120.471s-54.212-120.471-123.482-120.471c-69.271 0-123.482 54.212-123.482 120.471zM512 327.529c-177.694 0-379.482-78.306-379.482-201.788h60.235c0 72.282 171.671 141.553 319.247 141.553s319.247-66.259 319.247-141.553h60.235c0 123.482-201.788 201.788-379.482 201.788z" />
<glyph unicode="&#xe945;" glyph-name="wallet02" horiz-adv-x="994" d="M876.424 944.941h-758.965c-57.224 0-105.412-48.188-105.412-105.412v-783.059c0-57.224 48.188-105.412 105.412-105.412h758.965c57.224 0 105.412 48.188 105.412 105.412v75.294c0 12.047-12.047 24.094-24.094 24.094s-24.094-9.035-24.094-24.094v-75.294c0-30.118-24.094-54.212-54.212-54.212h-758.965c-30.118 0-54.212 24.094-54.212 54.212v783.059c0 30.118 24.094 54.212 54.212 54.212h758.965c30.118 0 54.212-24.094 54.212-54.212v-81.318c0-15.059 12.047-27.106 24.094-27.106s24.094 12.047 24.094 27.106v81.318c0 57.224-48.188 105.412-105.412 105.412zM909.553 649.788h-382.494c-108.424 0-195.765-87.341-195.765-195.765s87.341-195.765 195.765-195.765h382.494c39.153 0 72.282 33.129 72.282 69.271v249.976c0 39.153-33.129 72.282-72.282 72.282zM930.635 333.553c0-12.047-9.035-21.082-21.082-21.082h-382.494c-78.306 0-144.565 63.247-144.565 144.565 0 78.306 63.247 144.565 144.565 144.565v3.012h382.494c12.047 0 21.082-9.035 21.082-21.082v-249.976zM548.141 511.247c-27.106 0-48.188-21.082-48.188-48.188s21.082-48.188 48.188-48.188c27.106 0 48.188 21.082 48.188 48.188s-21.082 48.188-48.188 48.188z" />
<glyph unicode="&#xe946;" glyph-name="arrowreturn" horiz-adv-x="1202" d="M14.276 470.409c-19.010-17.619-19.010-47.689 0-65.308l493.345-457.238c18.034-16.714 46.204-15.644 62.918 2.39s15.644 46.204-2.39 62.918l-493.345 457.238v-65.308l493.345 457.238c18.034 16.714 19.104 44.884 2.39 62.918s-44.884 19.104-62.918 2.39l-493.345-457.238zM1125.421 393.238c24.589 0 44.522 19.933 44.522 44.522s-19.933 44.522-44.522 44.522h-1080.899c-24.589 0-44.522-19.933-44.522-44.522s19.933-44.522 44.522-44.522h1080.899z" />
<glyph unicode="&#xe947;" glyph-name="user326px" d="M512 310.154c-177.231 0-378.092-80.738-378.092-196.923h39.385c0 86.646 181.169 157.538 338.708 157.538s338.708-72.862 338.708-157.538h39.385c0 118.154-200.862 196.923-378.092 196.923zM687.262 536.615c0 96.492-78.769 177.231-175.262 177.231s-175.262-78.769-175.262-177.231c0-96.492 78.769-177.231 175.262-177.231s175.262 80.738 175.262 177.231zM374.154 536.615c0 74.831 61.046 137.846 135.877 137.846s135.877-61.046 135.877-137.846c0-74.831-61.046-137.846-135.877-137.846s-135.877 63.015-135.877 137.846zM512 960c-283.569 0-512-230.4-512-512s228.431-512 512-512 512 230.4 512 512-228.431 512-512 512zM512-24.615c-261.908 0-472.615 210.708-472.615 472.615 0 259.938 210.708 472.615 472.615 472.615s472.615-210.708 472.615-472.615c0-261.908-210.708-472.615-472.615-472.615z" />
<glyph unicode="&#xe948;" glyph-name="user4-51px" d="M512 960c-282.713 0-512-229.287-512-512s229.287-512 512-512 512 229.287 512 512-229.287 512-512 512zM512-41.739c-270.47 0-489.739 219.27-489.739 489.739s219.27 489.739 489.739 489.739 489.739-219.27 489.739-489.739-219.27-489.739-489.739-489.739zM744.626 254.33c-71.235 27.826-163.617 45.635-232.626 45.635s-160.278-16.696-232.626-45.635c-89.043-35.617-143.583-84.591-143.583-146.922h22.261c0 50.087 46.748 93.496 129.113 125.774 69.009 27.826 158.052 43.409 224.835 43.409s154.713-16.696 224.835-43.409c82.365-32.278 129.113-75.687 129.113-125.774h22.261c-1.113 62.33-54.539 111.304-143.583 146.922zM681.183 539.27c0 93.496-76.8 170.296-170.296 170.296s-170.296-76.8-170.296-170.296 76.8-170.296 170.296-170.296c93.496 1.113 170.296 76.8 170.296 170.296zM363.965 539.27c0 81.252 66.783 148.035 148.035 148.035s148.035-66.783 148.035-148.035-66.783-148.035-148.035-148.035c-82.365 1.113-148.035 66.783-148.035 148.035z" />
<glyph unicode="&#xe949;" glyph-name="delete" d="M960 791.685h-253.193c-26.434 0-51.39 11.605-68.456 31.858l-41.263 48.962c-6.22 7.358-15.36 11.643-24.993 11.643h-136.988c-9.368 0-18.318-4.096-24.538-11.15l-44.563-50.783c-16.953-19.418-41.529-30.53-67.319-30.53h-248.908c-15.701 0-28.444 12.743-28.444 28.444s12.743 28.444 28.444 28.444h248.908c9.444 0 18.356 4.020 24.576 11.112l44.563 50.821c17.029 19.418 41.529 30.53 67.281 30.53h136.988c26.472 0 51.428-11.605 68.494-31.858l41.263-48.962c6.22-7.396 15.322-11.643 24.955-11.643h253.193c15.701 0 28.444-12.743 28.444-28.444s-12.743-28.444-28.444-28.444zM801.621-45.34h-596.158c-59.695 0-108.279 48.621-108.279 108.43v602.984c0 15.701 12.743 28.444 28.444 28.444s28.444-12.743 28.444-28.444v-602.984c0-28.444 23.059-51.541 51.39-51.541h596.158c28.331 0 51.39 23.097 51.39 51.541v602.984c0 15.701 12.743 28.444 28.444 28.444 15.739 0 28.444-12.743 28.444-28.444v-602.984c0-59.809-48.583-108.43-108.279-108.43zM694.519 99.992c-15.701 0-28.444 12.743-28.444 28.444v499.712c0 15.701 12.743 28.444 28.444 28.444s28.444-12.743 28.444-28.444v-499.712c0-15.701-12.743-28.444-28.444-28.444zM504.889 99.992c-15.701 0-28.444 12.743-28.444 28.444v499.712c0 15.701 12.743 28.444 28.444 28.444s28.444-12.743 28.444-28.444v-499.712c0-15.701-12.743-28.444-28.444-28.444zM315.259 99.992c-15.701 0-28.444 12.743-28.444 28.444v499.712c0 15.701 12.743 28.444 28.444 28.444s28.444-12.743 28.444-28.444v-499.712c0-15.701-12.743-28.444-28.444-28.444z" />
<glyph unicode="&#xe94a;" glyph-name="enclosure" d="M476.231 114.256c-127.21-127.21-266.336-139.736-356.798-49.245l-7.499 7.501h-10.606l-0.030-25.6 18.105 18.099c-84.907 84.934-84.907 222.631 0 307.565l483.294 483.264c9.998 9.997 9.998 26.206 0.001 36.204s-26.206 9.998-36.204 0.001l-483.298-483.268c-104.898-104.931-104.898-275.037-0.003-379.964l7.499-7.501h10.606l0.030 25.6-18.105-18.099c112.050-112.085 283.306-96.666 429.212 49.239l410.925 410.925c9.997 9.997 9.997 26.206 0 36.204s-26.206 9.997-36.204 0l-410.925-410.925zM350.589 136.022c-42.77-42.77-112.159-42.77-154.958 0.005-42.794 42.794-42.794 112.179 0.005 154.978l451.433 451.433c9.997 9.997 9.997 26.206 0 36.204s-26.206 9.997-36.204 0l-451.433-451.433c-62.794-62.794-62.794-164.597 0-227.391 62.799-62.763 164.598-62.763 227.361 0l484.653 484.653c9.997 9.997 9.997 26.206 0 36.204s-26.206 9.997-36.204 0l-484.653-484.653zM836.565 855.849c64.574-64.574 64.574-169.287 0-233.861l-446.524-446.494 36.203-36.205 446.524 446.494c84.569 84.569 84.569 221.701 0.001 306.269s-221.7 84.569-306.269 0l36.204-36.204c64.574 64.574 169.287 64.574 233.861 0zM995.966 94.118c12.475 0 22.588 10.113 22.588 22.588s-10.113 22.588-22.588 22.588h-290.093c-12.475 0-22.588-10.113-22.588-22.588s10.113-22.588 22.588-22.588h290.093zM865.882 256.211c0 12.475-10.113 22.588-22.588 22.588s-22.588-10.113-22.588-22.588v-290.093c0-12.475 10.113-22.588 22.588-22.588s22.588 10.113 22.588 22.588v290.093z" />
<glyph unicode="&#xe94b;" glyph-name="go" d="M512-64c282.77 0 512 229.23 512 512s-229.23 512-512 512c-282.77 0-512-229.23-512-512s229.23-512 512-512zM512 899.765c249.503 0 451.765-202.262 451.765-451.765s-202.262-451.765-451.765-451.765c-249.503 0-451.765 202.262-451.765 451.765s202.262 451.765 451.765 451.765zM804.978 433.271c10.931 10.131 10.931 27.421 0 37.552l-260.475 241.411c-10.37 9.611-26.567 8.996-36.178-1.374s-8.996-26.567 1.374-36.178l260.475-241.411v37.552l-260.475-241.411c-10.37-9.611-10.985-25.808-1.374-36.178s25.808-10.985 36.178-1.374l260.475 241.411zM235.251 478.118c-14.138 0-25.6-11.462-25.6-25.6s11.462-25.6 25.6-25.6h522.208c14.138 0 25.6 11.462 25.6 25.6s-11.462 25.6-25.6 25.6h-522.208z" />
<glyph unicode="&#xe94c;" glyph-name="nail" d="M499.775-43.52c-16.957 0-30.72 13.763-30.72 30.72v372.326c0 16.957 13.763 30.72 30.72 30.72s30.72-13.763 30.72-30.72v-372.326c0-16.957-13.763-30.72-30.72-30.72zM499.775 857.6c-126.198 0-228.884-102.687-228.884-228.884 0-126.239 102.687-228.925 228.884-228.925 126.239 0 228.925 102.687 228.925 228.925 0 126.198-102.687 228.884-228.925 228.884zM499.775 338.35c-160.072 0-290.324 130.253-290.324 290.365 0 160.072 130.253 290.324 290.324 290.324 160.113 0 290.365-130.253 290.365-290.324 0-160.113-130.253-290.365-290.365-290.365z" />
<glyph unicode="&#xe94d;" glyph-name="publishing-editor" d="M975.826 655.621c50.701 50.701 57.734 128.839 11.561 175.012l-81.981 82.014c-46.17 46.17-124.338 39.122-175.017-11.557l-655.723-655.723c-23.873-23.873-38.984-54.968-41.879-86.902l-16.154-179.016c-1.842-20.414 15.16-37.561 35.589-35.891l180.29 14.732c32.268 2.634 63.808 17.824 87.954 41.97l655.36 655.36zM227.134 24.136l-180.293-14.733 35.589-35.891 16.153 179.002c1.466 16.173 9.628 32.969 22.797 46.138l655.723 655.723c26.558 26.558 63.275 29.869 81.583 11.561l81.981-82.014c18.324-18.324 15.022-55.009-11.557-81.587l-655.36-655.36c-13.314-13.314-30.332-21.51-46.617-22.839zM844.496 571.032c12.9-12.9 33.815-12.9 46.715 0s12.9 33.815 0 46.715l-198.722 198.722c-12.9 12.9-33.815 12.9-46.715 0s-12.9-33.815 0-46.715l198.722-198.722zM795.413-50.787c14.595 0 26.426 11.831 26.426 26.426s-11.831 26.426-26.426 26.426h-729.348c-14.595 0-26.426-11.831-26.426-26.426s11.831-26.426 26.426-26.426h729.348z" />
<glyph unicode="&#xe94e;" glyph-name="aircraft-pc" horiz-adv-x="1114" d="M913.886 75.851c8.699-3.073 18.091 2.328 19.811 11.393l161.536 851.675c2.325 12.256-10.407 21.862-21.555 16.263l-1062.144-533.541c-11.861-5.958-10.772-23.235 1.744-27.656l318.171-112.384c7.842-2.77 16.445 1.342 19.214 9.184s-1.342 16.445-9.184 19.214l-318.171 112.384 1.744-27.656 1062.144 533.541-21.555 16.263-161.536-851.675 19.811 11.393-318.062 112.347c-7.842 2.77-16.445-1.342-19.215-9.184s1.342-16.445 9.184-19.215l318.062-112.347zM489.747 304.249c-26.844-30.265-41.683-69.333-41.683-109.762v-231.717c0-8.317 6.742-15.059 15.059-15.059s15.059 6.742 15.059 15.059v231.717c0 33.062 12.139 65.020 34.095 89.774l574.535 647.458c5.52 6.221 4.952 15.738-1.269 21.259s-15.739 4.952-21.259-1.269l-574.537-647.461z" />
<glyph unicode="&#xe94f;" glyph-name="checkmark-pc" horiz-adv-x="1425" d="M460.471 72.294l94.64-0.253-418.621 422.619c-25.956 26.204-68.24 26.405-94.444 0.449s-26.405-68.24-0.449-94.444l418.621-422.619c26.032-26.281 68.468-26.394 94.64-0.253l846.185 845.171c26.096 26.065 26.121 68.349 0.057 94.445s-68.349 26.121-94.445 0.057l-846.185-845.171z" />
<glyph unicode="&#xe950;" glyph-name="phone06" horiz-adv-x="962" d="M556.898 290.918c2.928 2.643 3.302 2.882 2.852 2.693-7.146-3.004-19.061-2.835-37.99 5.26-32.266 13.799-72.329 46.706-119.86 103.595-46.617 61.825-72.056 112.045-79.787 150.211-4.935 24.363-2.2 39.696 4.131 49.15 1.654 2.47 2.63 3.34 1.811 2.857l2.884 1.93c3.996 3.011 7.754 6.056 11.281 9.144 64.116 56.141 55.377 97.916-9.063 209.755-52.562 102.779-123.009 132.015-219.493 74.989-156.591-98.182-75.219-352.922 88.018-569.415 0.736-1.139 3.682-5.385 7.848-11.279 6.898-9.758 14.734-20.616 23.372-32.301 24.689-33.399 50.899-66.808 77.558-98.080 22.015-25.824 43.418-49.089 63.945-69.194 21.867-21.418 42.471-38.99 61.765-52.271l47.462-36.835c85.1-58.685 173.987-82.719 245.886-58.672 18.585 6.19 43.602 22.096 67.635 51.93 3.321 4.123 6.541 8.44 9.652 12.956 53.78 63.901 40.871 129.25-28.145 197.746-91.881 91.042-157.758 120.128-221.763 55.831zM757.479 74.886c-4.009-5.574-6.303-8.65-8.654-11.569-15.952-19.802-30.919-29.318-38.953-31.994-50.18-16.783-120.423 2.21-189.63 49.887l-47.472 36.842c-17.425 12.055-35.426 27.407-54.939 46.519-19.080 18.688-39.257 40.619-60.143 65.119-25.635 30.070-50.986 62.385-74.881 94.709-8.367 11.318-15.947 21.821-22.599 31.232-3.964 5.608-6.718 9.577-8.121 11.632-142.516 189.068-213.934 412.648-106.15 480.237 61.977 36.619 94.446 23.144 132.71-51.616 50.959-88.518 54.524-105.56 22.689-133.435-2.36-2.066-4.939-4.156-7.743-6.269l2.884 1.93c-6.722-3.973-14.6-10.999-21.801-21.752-36.614-54.677-18.589-143.661 78.643-272.482 98.304-117.714 175.339-150.658 230.482-127.476 6.723 2.826 11.82 6.081 15.35 9.125 30.143 30.153 66.63 14.044 135.81-54.505 48.376-48.011 54.338-78.196 22.517-116.134zM713.697 495.23c0-11.135-0.658-22.135-1.968-33.005-2.049-17.015 10.082-32.469 27.097-34.519s32.469 10.082 34.519 27.097c1.606 13.337 2.413 26.815 2.413 40.427 0 135.703-82.073 256.215-205.341 307.258-15.834 6.556-33.985-0.964-40.541-16.798s0.964-33.985 16.798-40.541c100.27-41.52 167.023-139.537 167.023-249.919zM883.405 482.024c0-22.301-1.659-44.387-4.939-66.187-2.55-16.947 9.121-32.752 26.068-35.302s32.752 9.121 35.302 26.068c3.739 24.851 5.63 50.024 5.63 75.421 0 218.717-141.475 410.126-346.33 476.467-16.304 5.28-33.801-3.657-39.081-19.961s3.657-33.801 19.961-39.081c179.437-58.11 303.39-225.811 303.39-417.425z" />
<glyph unicode="&#xe951;" glyph-name="vip" horiz-adv-x="1117" d="M784.983 959.043h-483.067l-301.916-367.402 543.45-612.338 543.45 612.338-301.916 367.402zM845.143 548.268h-10.308c-15.392 0-14.347-2.988-21.805-11.953-53.91-72.978-268.99-361.144-268.99-361.144-0.139 0.343-0.211 0.827-0.35 1.25v-1.25c0 0-215.357 288.099-269.194 361.144-7.523 9.032-6.34 11.953-21.871 11.953h-10.38c-5.99 0-10.797 5.352-10.797 11.959v59.563c0 6.601 4.879 11.959 10.797 11.959h107.682c5.917 0 14.413-0.833 21.527-11.959l172.31-241.873v-0.906c0.139 0.282 0.211 0.699 0.35 0.833l172.032 242.014c7.107 11.059 15.675 11.959 21.599 11.959h107.536c5.917 0 10.724-5.352 10.591-12.026v-59.562c0.001-6.54-4.805-11.96-10.729-11.96v0z" />
<glyph unicode="&#xe952;" glyph-name="file" horiz-adv-x="1307" d="M819.086-61.146c105.667 0 191.317 85.658 191.317 191.317l-41.894 460.525c-1.092 11.983-11.692 20.812-23.675 19.719s-20.812-11.692-19.719-23.675l41.804-458.547c-0.090-79.617-66.232-145.765-147.833-145.765h-617.334c-12.033 0-21.787-9.754-21.787-21.787s9.754-21.787 21.787-21.787h617.334zM883.356 153.872c12.033 0 21.787 9.754 21.787 21.787s-9.754 21.787-21.787 21.787h-369.495c-12.033 0-21.787-9.754-21.787-21.787s9.754-21.787 21.787-21.787h369.495zM883.356 284.596c12.033 0 21.787 9.754 21.787 21.787s-9.754 21.787-21.787 21.787h-369.495c-12.033 0-21.787-9.754-21.787-21.787s9.754-21.787 21.787-21.787h369.495zM650.724 437.106c12.033 0 21.787 9.754 21.787 21.787s-9.754 21.787-21.787 21.787h-136.863c-12.033 0-21.787-9.754-21.787-21.787s9.754-21.787 21.787-21.787h136.863zM201.758 321.497c-105.67 0-191.338-85.661-191.338-191.317 0-105.671 85.661-191.317 191.338-191.317 39.528 0 78.448 12.363 110.609 35.184 31.567 22.396 55.92 54.247 69.165 90.524 9.239 25.362 13.247 50.451 10.523 74.053-0.171 1.481-0.328 3.058-0.518 5.169-0.352 3.969-0.352 3.969-0.517 5.77-0.519 5.371-0.925 9.612-1.84 19.169-0.916 9.562-1.324 13.817-1.837 19.136-1.312 13.744-1.312 13.744-2.626 27.514-1.314 13.772-1.314 13.772-2.628 27.552-3.223 33.735-3.223 33.735-6.446 67.466l-7.218 75.372c-1.029 10.795-1.88 19.695-3.765 39.395-1.788 18.685-2.71 28.33-3.764 39.403-2.070 21.602-3.725 38.884-7.448 77.777-3.442 36.136-4.975 52.2-6.906 72.269-1.485 15.563-1.485 15.563-2.971 31.138s-1.486 15.575-2.972 31.154l-4.59 47.864c-0.687 7.215-0.687 7.215-1.375 14.45s-0.688 7.236-1.377 14.469c-0.176 1.703-0.283 2.802-0.541 5.514-0.008 80.641 66.148 146.797 147.735 146.797 81.605 0 147.764-66.153 147.764-147.743 0-81.608-66.155-147.764-147.764-147.764v-43.574h617.355c105.657 0 191.317 85.668 191.317 191.338 0 105.653-85.664 191.317-191.317 191.317h-617.355c-12.033 0-21.787-9.754-21.787-21.787s9.754-21.787 21.787-21.787h617.355c81.587 0 147.743-66.155 147.743-147.743 0-81.606-66.153-147.764-147.743-147.764h-617.355c-29.050 0-29.050-43.574 0-43.574 105.674 0 191.338 85.664 191.338 191.338 0 105.657-85.668 191.317-191.338 191.317-105.653 0-191.317-85.664-191.317-191.317 0.149-2.6 0.149-2.6 0.201-3.158 0.268-2.816 0.387-4.044 0.562-5.725 0.67-7.046 0.67-7.046 1.358-14.281s0.688-7.236 1.377-14.469l4.591-47.867c1.485-15.57 1.485-15.57 2.972-31.144s1.486-15.575 2.972-31.154c1.93-20.069 3.463-36.123 6.904-72.256 3.725-38.905 5.38-56.188 7.448-77.779 1.054-11.069 1.976-20.719 3.765-39.41 1.885-19.699 2.735-28.591 3.764-39.389l7.219-75.377c3.222-33.726 3.222-33.726 6.445-67.457 1.314-13.777 1.314-13.777 2.628-27.551 1.314-13.771 1.314-13.771 2.628-27.539 0.514-5.327 0.921-9.568 1.836-19.125 0.916-9.562 1.324-13.817 1.837-19.136 0.142-1.55 0.142-1.55 0.291-3.243 0.428-4.768 0.617-6.672 0.836-8.571 1.867-16.172-1.091-34.689-8.173-54.127-10.205-27.951-29.070-52.624-53.444-69.916-24.781-17.584-54.887-27.147-85.394-27.147-81.613 0-147.764 66.139-147.764 147.743 0 81.59 66.158 147.743 147.764 147.743h153.009c12.033 0 21.787 9.754 21.787 21.787s-9.754 21.787-21.787 21.787h-153.009z" />
<glyph unicode="&#xe953;" glyph-name="expression" d="M506.002 0.697c-250.343 0-453.3 202.956-453.3 453.3s202.956 453.3 453.3 453.3c250.343 0 453.3-202.956 453.3-453.3s-202.956-453.3-453.3-453.3zM506.002 952.473c-275.294 0-498.476-223.182-498.476-498.476s223.182-498.476 498.476-498.476c275.294 0 498.476 223.182 498.476 498.476s-223.182 498.476-498.476 498.476zM353.468 474.087v0c-30.069 0-54.433 24.364-54.433 54.433v20.47c0 30.069 24.364 54.433 54.433 54.433v0c30.069 0 54.433-24.364 54.433-54.433v-20.47c0-30.069-24.364-54.433-54.433-54.433zM676.858 474.087v0c-30.069 0-54.433 24.364-54.433 54.433v20.47c0 30.069 24.364 54.433 54.433 54.433v0c30.069 0 54.433-24.364 54.433-54.433v-20.47c0-30.069-24.364-54.433-54.433-54.433zM506 204.878c-79.585 0-153.907 32.584-207.665 89.138-8.595 9.042-22.892 9.405-31.934 0.81s-9.405-22.892-0.81-31.934c62.2-65.436 148.315-103.19 240.409-103.19 97.355 0 187.9 42.2 250.497 114.272 8.18 9.419 7.177 23.685-2.242 31.866s-23.685 7.177-31.866-2.242c-54.105-62.294-132.259-98.72-216.389-98.72z" />
<glyph unicode="&#xe954;" glyph-name="enclosure02" horiz-adv-x="960" d="M476.231 114.256c-127.21-127.21-266.336-139.736-356.798-49.245l-7.499 7.501h-10.606l-0.030-25.6 18.105 18.099c-84.907 84.934-84.907 222.631 0 307.565l483.294 483.264c9.998 9.997 9.998 26.206 0.001 36.204s-26.206 9.998-36.204 0.001l-483.298-483.268c-104.898-104.931-104.898-275.037-0.003-379.964l7.499-7.501h10.606l0.030 25.6-18.105-18.099c112.050-112.085 283.306-96.666 429.212 49.239l410.925 410.925c9.997 9.997 9.997 26.206 0 36.204s-26.206 9.997-36.204 0l-410.925-410.925zM350.589 136.022c-42.77-42.77-112.159-42.77-154.958 0.005-42.794 42.794-42.794 112.179 0.005 154.978l451.433 451.433c9.997 9.997 9.997 26.206 0 36.204s-26.206 9.997-36.204 0l-451.433-451.433c-62.794-62.794-62.794-164.597 0-227.391 62.799-62.763 164.598-62.763 227.361 0l484.653 484.653c9.997 9.997 9.997 26.206 0 36.204s-26.206 9.997-36.204 0l-484.653-484.653zM836.565 855.849c64.574-64.574 64.574-169.287 0-233.861l-446.524-446.494 36.203-36.205 446.524 446.494c84.569 84.569 84.569 221.701 0.001 306.269s-221.7 84.569-306.269 0l36.204-36.204c64.574 64.574 169.287 64.574 233.861 0z" />
</font>
</defs>
</svg>
